# Blender 5.0.1
# www.blender.org
mtllib head.mtl
o head
v 0.000294 1.124373 -0.342109
v -0.128020 1.124373 -0.316590
v 0.000294 1.150409 -0.475554
v 0.128608 1.124373 -0.316590
v 0.237391 1.124373 -0.243904
v 0.179678 1.150409 -0.439873
v 0.331747 1.150409 -0.338260
v 0.222971 1.224544 -0.544390
v 0.411745 1.224544 -0.418258
v 0.251897 1.335496 -0.614228
v 0.000294 1.224544 -0.588683
v -0.222383 1.224544 -0.544390
v 0.000294 1.335496 -0.664272
v -0.251310 1.335496 -0.614228
v 0.000294 1.466379 -0.690818
v -0.261465 1.466379 -0.638753
v 0.262052 1.466379 -0.638753
v 0.000294 2.299628 -0.690818
v -0.261465 2.299628 -0.638753
v 0.000294 2.430511 -0.664272
v 0.262052 2.299628 -0.638753
v 0.483964 2.299628 -0.490478
v 0.251897 2.430511 -0.614228
v 0.465191 2.430511 -0.471705
v 0.222971 2.541463 -0.544390
v 0.411745 2.541463 -0.418259
v 0.179678 2.615598 -0.439873
v 0.000294 2.541463 -0.588683
v -0.222383 2.541463 -0.544390
v 0.000294 2.615598 -0.475554
v -0.179091 2.615598 -0.439873
v 0.000294 2.641634 -0.342116
v -0.128020 2.641634 -0.316590
v 0.128608 2.641634 -0.316590
v 0.237391 2.641634 -0.243904
v 0.331747 2.615598 -0.338260
v 0.310076 2.641634 -0.135122
v 0.433360 2.615598 -0.186192
v 0.335596 2.641634 -0.006807
v 0.469040 2.615598 -0.006807
v 0.310076 2.641634 0.121507
v 0.433360 2.615598 0.172577
v 0.237391 2.641634 0.230289
v 0.331747 2.615598 0.324646
v 0.128608 2.641634 0.302975
v 0.179678 2.615598 0.426258
v 0.000294 2.641634 0.328495
v 0.000294 2.615598 0.461939
v -0.128020 2.641634 0.302975
v -0.179091 2.615598 0.426258
v -0.236803 2.641634 0.230289
v -0.331166 2.615598 0.324646
v -0.309489 2.641634 0.121507
v -0.432772 2.615598 0.172577
v -0.335014 2.641634 -0.006807
v -0.468459 2.615598 -0.006807
v -0.309489 2.641634 -0.135122
v -0.432772 2.615598 -0.186192
v -0.236803 2.641634 -0.243904
v -0.331166 2.615598 -0.338260
v -0.411158 2.541463 -0.418259
v -0.464604 2.430511 -0.471705
v -0.537289 2.541463 -0.229484
v -0.607127 2.430511 -0.258412
v -0.581582 2.541463 -0.006807
v -0.657171 2.430511 -0.006807
v -0.537289 2.541463 0.215869
v -0.607127 2.430511 0.244796
v -0.411158 2.541463 0.404644
v -0.464604 2.430511 0.458090
v -0.222383 2.541463 0.530775
v -0.251310 2.430511 0.600613
v 0.000294 2.541463 0.575068
v 0.000294 2.430511 0.650658
v 0.222971 2.541463 0.530775
v 0.251897 2.430511 0.600613
v 0.411745 2.541463 0.404644
v 0.465191 2.430511 0.458090
v 0.537877 2.541463 0.215869
v 0.607714 2.430511 0.244796
v 0.582170 2.541463 -0.006807
v 0.657759 2.430511 -0.006807
v 0.537877 2.541463 -0.229484
v 0.607714 2.430511 -0.258412
v 0.632239 2.299628 -0.268566
v 0.684304 2.299628 -0.006807
v 0.632239 1.466379 -0.268566
v 0.607714 1.335496 -0.258411
v 0.684304 1.466379 -0.006807
v 0.483964 1.466379 -0.490478
v 0.465191 1.335496 -0.471705
v 0.657759 1.335496 -0.006807
v 0.632239 1.466379 0.254951
v 0.607714 1.335496 0.244797
v 0.483964 1.466379 0.476863
v 0.632239 2.299628 0.254951
v 0.483964 2.299628 0.476863
v 0.262052 2.299628 0.625138
v 0.000294 2.299628 0.677203
v 0.262052 1.466379 0.625138
v 0.251897 1.335496 0.600613
v 0.000294 1.466379 0.677203
v 0.000294 1.335496 0.650658
v -0.261465 1.466379 0.625138
v -0.251310 1.335496 0.600613
v -0.483376 1.466379 0.476863
v -0.261465 2.299628 0.625138
v -0.483376 2.299628 0.476863
v -0.631651 2.299628 0.254951
v -0.683717 2.299628 -0.006807
v -0.631651 1.466379 0.254951
v -0.607127 1.335496 0.244797
v -0.683717 1.466379 -0.006807
v -0.657171 1.335496 -0.006807
v -0.631651 1.466379 -0.268566
v -0.607127 1.335496 -0.258411
v -0.483376 1.466379 -0.490478
v -0.631651 2.299628 -0.268566
v -0.483376 2.299628 -0.490478
v -0.464604 1.335496 -0.471705
v -0.411158 1.224544 -0.418258
v -0.331166 1.150409 -0.338260
v -0.537289 1.224544 -0.229484
v -0.432772 1.150409 -0.186192
v -0.581582 1.224544 -0.006807
v -0.468459 1.150409 -0.006807
v -0.537289 1.224544 0.215869
v -0.432772 1.150409 0.172577
v -0.411158 1.224544 0.404644
v -0.331166 1.150409 0.324646
v -0.464604 1.335496 0.458090
v -0.222383 1.224544 0.530775
v -0.179091 1.150409 0.426259
v 0.000294 1.224544 0.575068
v 0.000294 1.150409 0.461939
v 0.222971 1.224544 0.530775
v 0.179678 1.150409 0.426259
v 0.411745 1.224544 0.404644
v 0.331747 1.150409 0.324646
v 0.465191 1.335496 0.458090
v 0.537877 1.224544 0.215869
v 0.433360 1.150409 0.172577
v 0.582170 1.224544 -0.006807
v 0.469040 1.150409 -0.006807
v 0.537877 1.224544 -0.229484
v 0.433360 1.150409 -0.186192
v 0.310076 1.124373 -0.135122
v 0.335596 1.124373 -0.006807
v 0.310076 1.124373 0.121507
v 0.237391 1.124373 0.230289
v 0.128608 1.124373 0.302975
v 0.000294 1.124373 0.328501
v -0.128020 1.124373 0.302975
v -0.236803 1.124373 0.230289
v -0.309489 1.124373 0.121507
v -0.335014 1.124373 -0.006807
v -0.309489 1.124373 -0.135122
v -0.236803 1.124373 -0.243904
v -0.179091 1.150409 -0.439873
v -0.251310 2.430511 -0.614228
vn -0.0414 -0.9941 -0.0999
vn -0.0000 -0.9941 -0.1081
vn 0.0414 -0.9941 -0.0999
vn 0.0764 -0.9941 -0.0764
vn 0.0999 -0.9941 -0.0414
vn 0.1081 -0.9941 -0.0000
vn 0.0999 -0.9941 0.0414
vn 0.0764 -0.9941 0.0764
vn 0.0414 -0.9941 0.0999
vn -0.0000 -0.9941 0.1081
vn -0.0414 -0.9941 0.0999
vn -0.0764 -0.9941 0.0764
vn -0.0998 -0.9941 0.0414
vn -0.1081 -0.9941 -0.0000
vn -0.0998 -0.9941 -0.0414
vn -0.0764 -0.9941 -0.0764
vn -0.1520 -0.9178 -0.3669
vn -0.0000 -0.9178 -0.3971
vn 0.1520 -0.9178 -0.3669
vn 0.2808 -0.9178 -0.2808
vn 0.2727 -0.7015 -0.6584
vn 0.5040 -0.7015 -0.5040
vn -0.0000 -0.7015 -0.7127
vn 0.3540 -0.3800 -0.8546
vn 0.6541 -0.3800 -0.6541
vn -0.0000 -0.3800 -0.9250
vn -0.2727 -0.7015 -0.6584
vn -0.3540 -0.3800 -0.8546
vn -0.3808 -0.0987 -0.9194
vn -0.0000 -0.0987 -0.9951
vn 0.3808 -0.0987 -0.9194
vn -0.3808 0.0987 -0.9194
vn -0.0000 0.0987 -0.9951
vn 0.3808 0.0987 -0.9194
vn -0.3540 0.3800 -0.8546
vn -0.0000 0.3800 -0.9250
vn 0.3540 0.3800 -0.8546
vn 0.7037 0.0987 -0.7037
vn 0.7037 -0.0987 -0.7037
vn 0.6541 0.3800 -0.6541
vn 0.2727 0.7015 -0.6584
vn 0.5040 0.7015 -0.5040
vn -0.0000 0.7015 -0.7127
vn 0.3234 0.9127 -0.2498
vn 0.3943 0.9127 -0.1070
vn -0.0000 0.8160 -0.5781
vn -0.2727 0.7015 -0.6584
vn -0.0478 0.9202 -0.3886
vn -0.0347 0.9871 -0.1563
vn -0.0000 0.9941 -0.1081
vn 0.0414 0.9941 -0.0999
vn 0.0018 0.9917 -0.1284
vn -0.1135 0.9888 -0.0967
vn -0.1081 0.9941 -0.0000
vn -0.0998 0.9941 0.0414
vn -0.0764 0.9941 0.0764
vn -0.0414 0.9941 0.0999
vn -0.0000 0.9941 0.1081
vn 0.0414 0.9941 0.0999
vn 0.0764 0.9941 0.0764
vn 0.0999 0.9941 0.0414
vn 0.1081 0.9941 -0.0000
vn 0.0999 0.9941 -0.0414
vn 0.0764 0.9941 -0.0764
vn 0.4685 0.8609 -0.1985
vn 0.3971 0.9178 -0.0000
vn 0.3669 0.9178 0.1520
vn 0.2808 0.9178 0.2808
vn 0.1520 0.9178 0.3669
vn -0.0000 0.9178 0.3971
vn -0.1520 0.9178 0.3669
vn -0.2808 0.9178 0.2808
vn -0.3669 0.9178 0.1520
vn -0.3971 0.9178 -0.0000
vn -0.3200 0.9205 -0.2242
vn -0.2808 0.9178 -0.2808
vn -0.5772 0.7082 -0.4065
vn -0.5040 0.7015 -0.5040
vn -0.7909 0.3860 -0.4748
vn -0.6541 0.3800 -0.6541
vn -0.9754 0.2201 -0.0151
vn -0.7127 0.7015 -0.0000
vn -0.8546 0.3800 0.3540
vn -0.6584 0.7015 0.2727
vn -0.6541 0.3800 0.6541
vn -0.5040 0.7015 0.5040
vn -0.3540 0.3800 0.8546
vn -0.2727 0.7015 0.6584
vn -0.0000 0.3800 0.9250
vn -0.0000 0.7015 0.7127
vn 0.3540 0.3800 0.8546
vn 0.2727 0.7015 0.6584
vn 0.6541 0.3800 0.6541
vn 0.5040 0.7015 0.5040
vn 0.8546 0.3800 0.3540
vn 0.6584 0.7015 0.2727
vn 0.9755 0.2197 0.0102
vn 0.7127 0.7015 -0.0000
vn 0.8950 0.3860 -0.2237
vn 0.6956 0.7082 -0.1207
vn 0.9194 0.0987 -0.3808
vn 0.9515 0.3077 -0.0000
vn 0.9194 -0.0987 -0.3808
vn 0.9720 -0.1006 0.2123
vn 0.8546 -0.3800 -0.3540
vn 0.8997 -0.3863 0.2032
vn 0.6584 -0.7015 -0.2727
vn 0.9194 -0.0987 0.3808
vn 0.8546 -0.3800 0.3540
vn 0.9194 0.0987 0.3808
vn 0.7037 -0.0987 0.7037
vn 0.6541 -0.3800 0.6541
vn 0.7037 0.0987 0.7037
vn 0.3808 0.0987 0.9194
vn 0.3808 -0.0987 0.9194
vn -0.0000 0.0987 0.9951
vn -0.0000 -0.0987 0.9951
vn 0.3540 -0.3800 0.8546
vn -0.0000 -0.3800 0.9250
vn -0.3808 -0.0987 0.9194
vn -0.3540 -0.3800 0.8546
vn -0.3808 0.0987 0.9194
vn -0.7037 -0.0987 0.7037
vn -0.6541 -0.3800 0.6541
vn -0.7037 0.0987 0.7037
vn -0.9194 0.0987 0.3808
vn -0.9194 -0.0987 0.3808
vn -0.9515 0.3077 -0.0001
vn -0.9720 -0.1006 -0.2123
vn -0.8546 -0.3800 0.3540
vn -0.8997 -0.3863 -0.2032
vn -0.9194 -0.0987 -0.3808
vn -0.8546 -0.3800 -0.3540
vn -0.9194 0.0987 -0.3808
vn -0.7037 -0.0987 -0.7037
vn -0.6541 -0.3800 -0.6541
vn -0.7037 0.0987 -0.7037
vn -0.6584 -0.7015 -0.2727
vn -0.5040 -0.7015 -0.5040
vn -0.3669 -0.9178 -0.1520
vn -0.2808 -0.9178 -0.2808
vn -0.3756 -0.9199 -0.1127
vn -0.6888 -0.7082 -0.1547
vn -0.4060 -0.9121 -0.0568
vn -0.6584 -0.7015 0.2727
vn -0.3968 -0.9121 0.1029
vn -0.5040 -0.7015 0.5040
vn -0.3272 -0.9121 0.2469
vn -0.2727 -0.7015 0.6584
vn -0.2078 -0.9121 0.3534
vn -0.0000 -0.7015 0.7127
vn -0.0568 -0.9121 0.4060
vn 0.2727 -0.7015 0.6584
vn 0.1029 -0.9121 0.3968
vn 0.5040 -0.7015 0.5040
vn 0.2469 -0.9121 0.3272
vn 0.6584 -0.7015 0.2727
vn 0.3756 -0.9199 0.1127
vn 0.6888 -0.7083 0.1547
vn 0.3669 -0.9178 -0.1520
vt 0.683096 0.645349
vt 0.670279 0.614406
vt 0.646597 0.590724
vt 0.615654 0.577907
vt 0.582162 0.577907
vt 0.551219 0.590724
vt 0.527536 0.614406
vt 0.514719 0.645349
vt 0.514719 0.678842
vt 0.527536 0.709784
vt 0.551219 0.733467
vt 0.582162 0.746284
vt 0.615654 0.746284
vt 0.646597 0.733467
vt 0.670280 0.709784
vt 0.683096 0.678841
vt 0.013281 0.108503
vt 0.046003 0.096710
vt 0.030404 0.051006
vt 0.000139 0.073779
vt 0.000139 0.928603
vt 0.031157 0.950393
vt 0.045246 0.904923
vt 0.012506 0.893558
vt 0.050769 0.853014
vt 0.015449 0.848208
vt 0.079428 0.916986
vt 0.084615 0.859064
vt 0.064449 0.972338
vt 0.113665 0.926245
vt 0.117567 0.864211
vt 0.101782 0.990040
vt 0.079726 0.084142
vt 0.113683 0.074146
vt 0.101806 0.010871
vt 0.064082 0.028398
vt 0.147931 0.067094
vt 0.142588 0.000139
vt 0.142957 0.999286
vt 0.147794 0.933062
vt 0.366954 0.066500
vt 0.371505 0.000346
vt 0.372092 0.999861
vt 0.366741 0.932801
vt 0.401264 0.073151
vt 0.412325 0.009867
vt 0.413144 0.989437
vt 0.400884 0.925600
vt 0.362973 0.867683
vt 0.150867 0.868290
vt 0.396240 0.863590
vt 0.435218 0.916155
vt 0.429200 0.858108
vt 0.450174 0.971218
vt 0.468173 0.903569
vt 0.463974 0.852011
vt 0.484062 0.949218
vt 0.435231 0.082829
vt 0.468733 0.094688
vt 0.483411 0.049075
vt 0.450435 0.026564
vt 0.503280 0.105586
vt 0.513782 0.070268
vt 0.514440 0.926612
vt 0.502035 0.891971
vt 0.670280 0.445750
vt 0.646597 0.422068
vt 0.615654 0.409251
vt 0.582162 0.409251
vt 0.551219 0.422068
vt 0.527536 0.445750
vt 0.514719 0.476693
vt 0.514719 0.510185
vt 0.527536 0.541128
vt 0.551219 0.564811
vt 0.582162 0.577628
vt 0.615654 0.577628
vt 0.646597 0.564811
vt 0.670279 0.541128
vt 0.683096 0.510186
vt 0.683096 0.476693
vt 0.496963 0.846735
vt 0.497115 0.794617
vt 0.461515 0.796537
vt 0.496031 0.738337
vt 0.463054 0.739018
vt 0.498622 0.679997
vt 0.462862 0.680121
vt 0.499000 0.619902
vt 0.464644 0.620563
vt 0.499381 0.559871
vt 0.465039 0.560497
vt 0.499601 0.499828
vt 0.465557 0.500475
vt 0.498174 0.440538
vt 0.465255 0.440426
vt 0.499900 0.381097
vt 0.466024 0.380149
vt 0.498921 0.321002
vt 0.464266 0.320113
vt 0.499628 0.261729
vt 0.463998 0.260818
vt 0.497529 0.204571
vt 0.464531 0.202477
vt 0.499279 0.151607
vt 0.464977 0.146441
vt 0.430017 0.199427
vt 0.430113 0.140691
vt 0.396259 0.196974
vt 0.397173 0.135270
vt 0.396219 0.258278
vt 0.430412 0.259163
vt 0.397454 0.319549
vt 0.430991 0.319829
vt 0.396976 0.380572
vt 0.431173 0.380315
vt 0.397778 0.440469
vt 0.431732 0.440392
vt 0.396947 0.500236
vt 0.431691 0.500645
vt 0.396628 0.559959
vt 0.430744 0.560541
vt 0.396193 0.619606
vt 0.429132 0.620129
vt 0.395187 0.680209
vt 0.428921 0.679887
vt 0.394760 0.741117
vt 0.428729 0.739857
vt 0.394604 0.802106
vt 0.428812 0.799496
vt 0.361424 0.804303
vt 0.361371 0.741930
vt 0.151776 0.804734
vt 0.152050 0.742045
vt 0.118296 0.802531
vt 0.118838 0.741211
vt 0.084406 0.800090
vt 0.151827 0.679774
vt 0.118099 0.680193
vt 0.361710 0.680052
vt 0.687840 0.002486
vt 0.604749 0.000083
vt 0.606149 0.167013
vt 0.689406 0.166163
vt 0.084102 0.001498
vt 0.084815 0.167983
vt 0.000083 0.005425
vt 0.001195 0.168150
vt 0.084565 0.334033
vt 0.606688 0.333570
vt 0.000952 0.333558
vt 0.084007 0.500181
vt 0.606312 0.499944
vt 0.000385 0.499762
vt 0.690372 0.333355
vt 0.689980 0.500337
vt 0.605735 0.666131
vt 0.689353 0.666618
vt 0.083517 0.666528
vt 0.605449 0.832204
vt 0.689071 0.832079
vt 0.084192 0.833063
vt 0.000669 0.666581
vt 0.000083 0.833682
vt 0.085298 0.999917
vt 0.606068 0.998729
vt 0.002147 0.997599
vt 0.153479 0.319791
vt 0.363667 0.319517
vt 0.362871 0.257366
vt 0.153764 0.258006
vt 0.690087 0.994843
vt 0.120178 0.319885
vt 0.120189 0.259031
vt 0.153343 0.195619
vt 0.120189 0.197872
vt 0.363005 0.194766
vt 0.151801 0.132213
vt 0.118604 0.136276
vt 0.363868 0.131284
vt 0.086610 0.200506
vt 0.085748 0.141862
vt 0.052212 0.203615
vt 0.051922 0.148381
vt 0.052500 0.261522
vt 0.086502 0.259920
vt 0.052842 0.320316
vt 0.085481 0.320065
vt 0.051244 0.379604
vt 0.085313 0.380387
vt 0.119419 0.380581
vt 0.049990 0.439506
vt 0.084622 0.440216
vt 0.118922 0.440222
vt 0.050078 0.499421
vt 0.085092 0.499930
vt 0.118751 0.499971
vt 0.049608 0.559388
vt 0.083207 0.559511
vt 0.118115 0.559799
vt 0.048592 0.620025
vt 0.083674 0.619848
vt 0.116081 0.619813
vt 0.050191 0.680020
vt 0.084177 0.679971
vt 0.050380 0.739230
vt 0.084340 0.740126
vt 0.051060 0.797415
vt 0.017985 0.795473
vt 0.016132 0.739361
vt 0.014285 0.679914
vt 0.014568 0.618972
vt 0.016553 0.559171
vt 0.014649 0.499185
vt 0.017153 0.439186
vt 0.016959 0.379918
vt 0.016913 0.320269
vt 0.018245 0.261617
vt 0.019293 0.205860
vt 0.016609 0.153464
s 1
usemtl Material.003
f 2/1/1 1/2/2 4/3/3 5/4/4 147/5/5 148/6/6 149/7/7 150/8/8 151/9/9 152/10/10 153/11/11 154/12/12 155/13/13 156/14/14 157/15/15 158/16/16
f 2/17/1 159/18/17 3/19/18 1/20/2
f 1/21/2 3/22/18 6/23/19 4/24/3
f 4/24/3 6/23/19 7/25/20 5/26/4
f 6/23/19 8/27/21 9/28/22 7/25/20
f 3/22/18 11/29/23 8/27/21 6/23/19
f 8/27/21 10/30/24 91/31/25 9/28/22
f 11/29/23 13/32/26 10/30/24 8/27/21
f 12/33/27 14/34/28 13/35/26 11/36/23
f 159/18/17 12/33/27 11/36/23 3/19/18
f 14/34/28 16/37/29 15/38/30 13/35/26
f 13/32/26 15/39/30 17/40/31 10/30/24
f 16/37/29 19/41/32 18/42/33 15/38/30
f 15/39/30 18/43/33 21/44/34 17/40/31
f 19/41/32 160/45/35 20/46/36 18/42/33
f 18/43/33 20/47/36 23/48/37 21/44/34
f 17/40/31 21/44/34 22/49/38 90/50/39
f 21/44/34 23/48/37 24/51/40 22/49/38
f 23/48/37 25/52/41 26/53/42 24/51/40
f 20/47/36 28/54/43 25/52/41 23/48/37
f 25/52/41 27/55/44 36/56/45 26/53/42
f 28/54/43 30/57/46 27/55/44 25/52/41
f 29/58/47 31/59/48 30/60/46 28/61/43
f 160/45/35 29/58/47 28/61/43 20/46/36
f 31/59/48 33/62/49 32/63/50 30/60/46
f 30/57/46 32/64/50 34/65/51 27/55/44
f 33/66/49 59/67/52 57/68/53 55/69/54 53/70/55 51/71/56 49/72/57 47/73/58 45/74/59 43/75/60 41/76/61 39/77/62 37/78/63 35/79/64 34/80/51 32/81/50
f 27/55/44 34/65/51 35/82/64 36/56/45
f 36/56/45 35/82/64 37/83/63 38/84/65
f 38/84/65 37/83/63 39/85/62 40/86/66
f 40/86/66 39/85/62 41/87/61 42/88/67
f 42/88/67 41/87/61 43/89/60 44/90/68
f 44/90/68 43/89/60 45/91/59 46/92/69
f 46/92/69 45/91/59 47/93/58 48/94/70
f 48/94/70 47/93/58 49/95/57 50/96/71
f 50/96/71 49/95/57 51/97/56 52/98/72
f 52/98/72 51/97/56 53/99/55 54/100/73
f 54/100/73 53/99/55 55/101/54 56/102/74
f 56/102/74 55/101/54 57/103/53 58/104/75
f 58/104/75 57/103/53 59/105/52 60/106/76
f 60/106/76 59/105/52 33/62/49 31/59/48
f 63/107/77 58/104/75 60/106/76 61/108/78
f 61/108/78 60/106/76 31/59/48 29/58/47
f 64/109/79 63/107/77 61/108/78 62/110/80
f 62/110/80 61/108/78 29/58/47 160/45/35
f 66/111/81 65/112/82 63/107/77 64/109/79
f 65/112/82 56/102/74 58/104/75 63/107/77
f 68/113/83 67/114/84 65/112/82 66/111/81
f 67/114/84 54/100/73 56/102/74 65/112/82
f 70/115/85 69/116/86 67/114/84 68/113/83
f 69/116/86 52/98/72 54/100/73 67/114/84
f 72/117/87 71/118/88 69/116/86 70/115/85
f 71/118/88 50/96/71 52/98/72 69/116/86
f 74/119/89 73/120/90 71/118/88 72/117/87
f 73/120/90 48/94/70 50/96/71 71/118/88
f 76/121/91 75/122/92 73/120/90 74/119/89
f 75/122/92 46/92/69 48/94/70 73/120/90
f 78/123/93 77/124/94 75/122/92 76/121/91
f 77/124/94 44/90/68 46/92/69 75/122/92
f 80/125/95 79/126/96 77/124/94 78/123/93
f 79/126/96 42/88/67 44/90/68 77/124/94
f 82/127/97 81/128/98 79/126/96 80/125/95
f 81/128/98 40/86/66 42/88/67 79/126/96
f 84/129/99 83/130/100 81/128/98 82/127/97
f 83/130/100 38/84/65 40/86/66 81/128/98
f 24/51/40 26/53/42 83/130/100 84/129/99
f 26/53/42 36/56/45 38/84/65 83/130/100
f 22/49/38 24/51/40 84/129/99 85/131/101
f 85/131/101 84/129/99 82/127/97 86/132/102
f 87/133/103 85/131/101 86/132/102 89/134/104
f 90/50/39 22/49/38 85/131/101 87/133/103
f 91/31/25 90/50/39 87/133/103 88/135/105
f 88/135/105 87/133/103 89/134/104 92/136/106
f 10/30/24 17/40/31 90/50/39 91/31/25
f 9/28/22 91/31/25 88/135/105 145/137/107
f 92/136/106 89/134/104 93/138/108 94/139/109
f 89/134/104 86/132/102 96/140/110 93/138/108
f 94/141/109 93/142/108 95/143/111 140/144/112
f 93/142/108 96/145/110 97/146/113 95/143/111
f 96/145/110 80/147/95 78/148/93 97/146/113
f 86/132/102 82/127/97 80/125/95 96/140/110
f 95/143/111 97/146/113 98/149/114 100/150/115
f 97/146/113 78/148/93 76/151/91 98/149/114
f 100/150/115 98/149/114 99/152/116 102/153/117
f 98/149/114 76/151/91 74/154/89 99/152/116
f 140/144/112 95/143/111 100/150/115 101/155/118
f 101/155/118 100/150/115 102/153/117 103/156/119
f 103/156/119 102/153/117 104/157/120 105/158/121
f 102/153/117 99/152/116 107/159/122 104/157/120
f 105/158/121 104/157/120 106/160/123 131/161/124
f 104/157/120 107/159/122 108/162/125 106/160/123
f 107/159/122 72/163/87 70/164/85 108/162/125
f 99/152/116 74/154/89 72/163/87 107/159/122
f 106/160/123 108/162/125 109/165/126 111/166/127
f 108/162/125 70/164/85 68/167/83 109/165/126
f 111/168/127 109/169/126 110/170/128 113/171/129
f 109/169/126 68/113/83 66/111/81 110/170/128
f 131/161/124 106/160/123 111/166/127 112/172/130
f 112/173/130 111/168/127 113/171/129 114/174/131
f 114/174/131 113/171/129 115/175/132 116/176/133
f 113/171/129 110/170/128 118/177/134 115/175/132
f 116/176/133 115/175/132 117/178/135 120/179/136
f 115/175/132 118/177/134 119/180/137 117/178/135
f 118/177/134 64/109/79 62/110/80 119/180/137
f 110/170/128 66/111/81 64/109/79 118/177/134
f 117/178/135 119/180/137 19/41/32 16/37/29
f 119/180/137 62/110/80 160/45/35 19/41/32
f 120/179/136 117/178/135 16/37/29 14/34/28
f 123/181/138 116/176/133 120/179/136 121/182/139
f 121/182/139 120/179/136 14/34/28 12/33/27
f 124/183/140 123/181/138 121/182/139 122/184/141
f 122/184/141 121/182/139 12/33/27 159/18/17
f 126/185/142 125/186/143 123/181/138 124/183/140
f 125/186/143 114/174/131 116/176/133 123/181/138
f 128/187/144 127/188/145 125/186/143 126/185/142
f 127/188/145 112/173/130 114/174/131 125/186/143
f 130/189/146 129/190/147 127/188/145 128/187/144
f 129/190/147 131/191/124 112/173/130 127/188/145
f 133/192/148 132/193/149 129/190/147 130/189/146
f 132/193/149 105/194/121 131/191/124 129/190/147
f 135/195/150 134/196/151 132/193/149 133/192/148
f 134/196/151 103/197/119 105/194/121 132/193/149
f 137/198/152 136/199/153 134/196/151 135/195/150
f 136/199/153 101/200/118 103/197/119 134/196/151
f 139/201/154 138/202/155 136/199/153 137/198/152
f 138/202/155 140/203/112 101/200/118 136/199/153
f 142/204/156 141/205/157 138/202/155 139/201/154
f 141/205/157 94/139/109 140/203/112 138/202/155
f 144/206/158 143/207/159 141/205/157 142/204/156
f 143/207/159 92/136/106 94/139/109 141/205/157
f 146/208/160 145/137/107 143/207/159 144/206/158
f 145/137/107 88/135/105 92/136/106 143/207/159
f 7/25/20 9/28/22 145/137/107 146/208/160
f 5/26/4 7/25/20 146/208/160 147/209/5
f 147/209/5 146/208/160 144/206/158 148/210/6
f 148/210/6 144/206/158 142/204/156 149/211/7
f 149/211/7 142/204/156 139/201/154 150/212/8
f 150/212/8 139/201/154 137/198/152 151/213/9
f 151/213/9 137/198/152 135/195/150 152/214/10
f 152/214/10 135/195/150 133/192/148 153/215/11
f 153/215/11 133/192/148 130/189/146 154/216/12
f 154/216/12 130/189/146 128/187/144 155/217/13
f 155/217/13 128/187/144 126/185/142 156/218/14
f 156/218/14 126/185/142 124/183/140 157/219/15
f 157/219/15 124/183/140 122/184/141 158/220/16
f 158/220/16 122/184/141 159/18/17 2/17/1
