# Blender 5.0.1
# www.blender.org
mtllib left_leg.mtl
o head.005
v 0.333245 -2.735033 -0.577533
v 0.300034 -1.879740 -0.278011
v 0.336989 -2.812047 0.099557
v 0.351234 -2.734144 -0.623095
v 0.333221 -3.002606 -0.658284
v 0.351223 -2.999584 -0.703211
v 0.335869 -3.017293 0.179262
v 0.351440 -3.046395 -0.669352
v 0.354082 -3.061269 0.179001
v 0.395397 -3.064447 -0.680048
v 0.359275 -3.037472 -0.706152
v 0.394831 -3.046239 -0.718744
v 1.013021 -3.046345 -0.731759
v 0.394974 -3.003825 -0.724253
v 1.008911 -3.003937 -0.737175
v 0.394962 -2.733783 -0.642738
v 1.008892 -2.733895 -0.655653
v 0.361222 -1.867571 -0.341599
v 0.347976 -1.746022 -0.328926
v 0.858460 -1.780360 -0.340368
v 0.317855 -1.875598 -0.323038
v 0.304641 -1.754081 -0.310290
v 0.286832 -1.758241 -0.265301
v 0.213823 -1.239083 -0.375874
v 0.195529 -1.240432 -0.331265
v 0.189939 -1.103655 -0.357412
v 0.257338 -1.232187 -0.394355
v 0.232080 -1.089061 -0.374842
v 0.747190 -1.145809 -0.394355
v 0.721931 -1.002689 -0.374842
v 0.837815 -1.659650 -0.328926
v 0.790320 -1.137458 -0.375881
v 0.881132 -1.652431 -0.310297
v 0.766429 -1.002005 -0.357412
v 0.807930 -1.132545 -0.331277
v 0.899214 -1.650260 -0.265326
v 0.787310 -1.015617 -0.315333
v 0.771031 -0.923306 -0.246161
v 0.746997 -0.891817 -0.274840
v 0.701181 -0.885095 -0.286717
v 0.690492 -0.824535 -0.153596
v 0.211330 -0.971467 -0.286717
v 0.200647 -0.910913 -0.153596
v 0.170501 -0.993467 -0.274840
v 0.160333 -0.935811 -0.148105
v 0.158654 -1.031287 -0.246161
v 0.149725 -0.980651 -0.134848
v 0.174928 -1.123597 -0.315333
v 0.148332 -0.972773 -0.089498
v 0.150105 -0.982828 0.033071
v 0.158605 -0.925986 -0.091519
v 0.160620 -0.937422 0.047889
v 0.198769 -0.900274 -0.092358
v 0.200889 -0.912281 0.054026
v 0.688601 -0.813908 -0.092358
v 0.735089 -0.824336 -0.091519
v 0.690710 -0.825916 0.054026
v 0.737104 -0.835772 0.047889
v 0.704918 -0.906579 0.178398
v 0.750436 -0.911404 0.164500
v 0.215117 -0.992945 0.178398
v 0.727422 -1.034278 0.247427
v 0.772026 -1.033886 0.230712
v 0.237652 -1.120637 0.247427
v 0.840501 -1.675687 0.400981
v 0.350775 -1.762040 0.400981
v 0.868316 -1.795103 0.400546
v 0.883768 -1.667641 0.382445
v 0.911421 -1.787119 0.382128
v 0.901546 -1.663493 0.337692
v 0.928770 -1.783077 0.337443
v 0.793062 -1.048219 0.190356
v 0.773680 -0.938336 0.130959
v 0.762487 -0.874847 0.033071
v 0.760715 -0.864792 -0.089492
v 0.920456 -1.770901 -0.276506
v 1.149139 -2.667304 0.126749
v 1.151602 -2.676463 0.167410
v 1.169231 -2.739367 0.109294
v 1.174983 -2.747321 0.169898
v 1.189316 -2.811425 0.091846
v 1.081323 -2.735133 -0.594323
v 1.189316 -2.811425 0.160887
v 1.198861 -3.017462 0.166826
v 1.198861 -3.017467 0.492378
v 1.080316 -3.002798 -0.674924
v 1.180579 -3.061406 0.167087
v 1.062270 -3.046507 -0.686098
v 1.180585 -3.061406 0.492726
v 1.136448 -3.079601 0.167728
v 1.136461 -3.079601 0.488585
v 0.398052 -3.079489 0.178367
v 1.017828 -3.064546 -0.693150
v 0.398052 -3.079489 0.500126
v 0.354082 -3.061269 0.504895
v 0.433204 -3.079495 0.631033
v 0.418094 -3.061294 0.676868
v 0.522984 -3.079507 0.719668
v 0.384664 -3.061275 0.618796
v 0.361371 -3.017299 0.599774
v 0.393053 -3.053179 0.652617
v 0.385759 -3.017138 0.655098
v 0.421806 -3.017362 0.703644
v 0.385759 -2.811885 0.643482
v 0.421806 -2.812059 0.692022
v 0.392991 -2.776149 0.637052
v 0.361371 -2.812096 0.588158
v 0.335869 -2.812090 0.493199
v 0.384608 -2.768121 0.602982
v 0.354363 -2.768127 0.490444
v 0.431879 -2.749926 0.611072
v 0.398997 -2.749920 0.488771
v 0.522984 -2.749938 0.701013
v 0.418162 -2.768121 0.660346
v 0.476322 -2.768133 0.717766
v 0.500318 -2.776124 0.742918
v 0.447027 -2.812059 0.716920
v 0.495990 -2.811723 0.752302
v 0.447027 -3.017368 0.728542
v 0.495990 -3.017051 0.763924
v 0.475594 -3.061306 0.733641
v 0.500094 -3.053179 0.758427
v 0.533934 -3.061319 0.766790
v 0.551587 -3.017405 0.787578
v 0.648898 -3.061338 0.795991
v 0.646753 -3.017418 0.811749
v 0.767101 -3.061356 0.794288
v 0.654084 -3.079532 0.752967
v 0.766466 -3.079545 0.751351
v 0.878918 -3.079563 0.749728
v 1.010652 -3.079582 0.712474
v 0.885323 -3.061369 0.792584
v 0.887978 -3.017449 0.808273
v 1.033821 -3.061393 0.750586
v 1.043422 -3.017462 0.764309
v 1.140850 -3.061406 0.641828
v 1.157211 -3.017467 0.648687
v 1.101358 -3.079601 0.620306
v 1.157211 -2.812165 0.637065
v 1.198861 -2.812177 0.480756
v 1.141335 -2.768232 0.624746
v 1.043422 -2.812140 0.752687
v 0.887978 -2.812109 0.796651
v 1.033821 -2.768214 0.733989
v 0.885323 -2.768189 0.775987
v 1.010652 -2.750013 0.693819
v 0.878918 -2.749994 0.731073
v 1.103006 -2.750032 0.599973
v 1.135515 -2.750032 0.478157
v 1.135558 -2.750032 0.229929
v 1.180312 -2.768239 0.478542
v 1.177539 -2.768046 0.229929
v 1.189316 -2.811425 0.229929
v 1.126412 -2.732316 0.190306
v 0.398966 -2.749920 0.240544
v 0.354667 -2.768133 0.240544
v 0.396945 -2.732278 0.201120
v 0.348816 -2.749056 0.180525
v 0.395391 -2.689690 0.193851
v 0.351160 -2.686947 0.176514
v 0.364032 -1.883744 0.399253
v 1.117725 -2.689540 0.182403
v 0.320548 -1.890964 0.380579
v 0.302390 -1.893147 0.335727
v 0.307309 -1.769284 0.382414
v 0.289164 -1.771467 0.337599
v 0.195542 -1.135443 0.230663
v 0.180624 -1.155895 0.190194
v 0.173958 -1.013055 0.164506
v 0.161304 -1.046310 0.130959
v 0.331740 -2.676855 0.134304
v 0.334364 -2.744454 0.116931
v 0.336989 -2.812047 0.170053
v 0.336989 -2.812047 0.240544
v 0.766473 -2.749975 0.732696
v 0.654084 -2.749963 0.734312
v 0.767107 -2.768171 0.777691
v 0.648898 -2.768152 0.779395
v 0.767369 -2.812090 0.798385
v 0.767369 -3.017430 0.810014
v 0.646753 -2.812065 0.800126
v 0.551587 -2.812053 0.775956
v 0.534288 -2.768133 0.750281
v 0.335869 -3.017299 0.504814
v 1.049206 -3.037565 -0.721132
v 1.055828 -2.999578 -0.718253
v 1.056102 -2.734262 -0.638242
v 0.901938 -1.773146 -0.321601
vn -0.9841 -0.0345 -0.1741
vn -0.9297 0.0212 -0.3676
vn -0.9263 0.1019 -0.3627
vn -0.9816 0.0432 -0.1860
vn -0.9997 0.0007 0.0245
vn -0.9796 0.0142 0.2002
vn -0.9357 -0.1971 0.2926
vn -0.9080 -0.0940 0.4082
vn -0.9746 -0.1335 -0.1796
vn -0.9809 -0.1948 -0.0006
vn -0.9341 -0.0829 -0.3472
vn -0.9153 -0.2388 -0.3243
vn -0.9335 -0.3085 -0.1826
vn -0.9238 -0.3828 -0.0019
vn -0.1950 -0.9808 -0.0083
vn -0.3829 -0.9238 -0.0075
vn -0.3909 -0.9075 -0.1535
vn -0.1968 -0.9566 -0.2151
vn -0.3891 -0.8544 -0.3445
vn -0.1904 -0.8986 -0.3953
vn -0.2112 0.0857 -0.9737
vn -0.2027 -0.1024 -0.9739
vn -0.3990 -0.0685 -0.9144
vn -0.4033 0.1285 -0.9060
vn 0.1597 -0.8927 -0.4214
vn 0.1850 -0.9533 -0.2387
vn 0.1547 0.0933 -0.9835
vn 0.1622 -0.0861 -0.9830
vn 0.1628 0.3099 -0.9367
vn -0.2162 0.2948 -0.9308
vn -0.4029 0.2767 -0.8724
vn -0.4078 0.1713 -0.8969
vn -0.2202 0.1962 -0.9555
vn 0.1680 0.2348 -0.9574
vn -0.3843 -0.0613 -0.9212
vn -0.1929 -0.0398 -0.9804
vn 0.2023 0.0201 -0.9791
vn -0.9740 -0.1400 -0.1781
vn -0.9167 -0.1367 -0.3755
vn -0.9635 -0.1682 -0.2082
vn -0.9116 -0.1603 -0.3786
vn -0.3818 -0.0619 -0.9222
vn -0.1919 -0.0302 -0.9809
vn -0.9752 -0.0886 -0.2028
vn -0.9381 -0.0234 -0.3457
vn -0.4466 0.2716 -0.8525
vn -0.2554 0.3287 -0.9093
vn 0.1279 0.3963 -0.9092
vn 0.1911 0.0374 -0.9809
vn 0.3808 0.0726 -0.9218
vn 0.3275 0.4081 -0.8522
vn 0.3873 0.0532 -0.9204
vn 0.9118 0.1613 -0.3777
vn 0.9612 0.1701 -0.2171
vn 0.9448 0.2784 -0.1728
vn 0.9136 0.1529 -0.3768
vn 0.8898 0.2987 -0.3449
vn 0.9421 0.2547 -0.2181
vn 0.9803 0.1235 0.1544
vn 0.9221 0.3374 -0.1893
vn 0.5249 0.2420 -0.8161
vn 0.2055 0.9044 -0.3739
vn 0.9785 0.2061 -0.0096
vn 0.2258 0.9279 -0.2965
vn 0.1281 0.9644 0.2312
vn 0.9184 0.3955 0.0107
vn 0.9178 0.3893 0.0784
vn 0.9517 0.2196 0.2144
vn 0.9904 0.1343 0.0339
vn -0.3235 0.7150 -0.6197
vn -0.3529 0.8885 -0.2934
vn -0.5321 0.8005 -0.2760
vn -0.5105 0.6338 -0.5811
vn -0.9977 0.0267 -0.0625
vn -0.9738 0.1968 -0.1137
vn -0.9640 0.1234 -0.2355
vn -0.9904 -0.0025 -0.1382
vn -0.9570 -0.2047 0.2056
vn -0.9755 -0.0975 0.1972
vn -0.9865 -0.0244 0.1617
vn -0.9969 0.0341 0.0714
vn -0.9993 0.0359 -0.0096
vn -0.9768 0.2137 -0.0174
vn -0.9750 0.1860 0.1218
vn -0.5393 0.8411 -0.0422
vn -0.3606 0.9317 -0.0448
vn -0.5376 0.7878 0.3004
vn -0.3525 0.8793 0.3204
vn 0.0307 0.9468 0.3204
vn 0.2361 0.9241 0.3004
vn -0.3062 0.6167 0.7252
vn 0.2376 0.6818 0.6919
vn 0.4508 0.7362 0.5048
vn 0.1274 0.4981 0.8577
vn 0.3207 0.3858 0.8651
vn -0.2730 0.4329 0.8591
vn 0.1672 0.1449 0.9752
vn 0.3582 0.1824 0.9156
vn -0.2067 0.0775 0.9753
vn 0.2060 -0.0692 0.9761
vn -0.1772 -0.1392 0.9743
vn 0.4023 -0.0152 0.9154
vn 0.9334 0.2051 0.2943
vn 0.9681 0.2103 0.1362
vn 0.8989 0.2256 0.3756
vn 0.8863 0.2945 0.3574
vn 0.8894 0.2203 -0.4006
vn 0.8191 0.4874 0.3026
vn 0.8528 0.5078 0.1217
vn 0.9712 0.2380 0.0087
vn 0.9675 0.2481 -0.0483
vn 0.9947 0.1029 0.0082
vn 0.9048 0.1745 -0.3884
vn 0.9644 0.2530 0.0771
vn 0.9657 0.2592 -0.0131
vn 0.9905 0.1370 -0.0100
vn 0.9649 -0.2536 -0.0676
vn 0.9441 -0.1055 -0.3124
vn 0.9875 0.1577 -0.0078
vn 0.9747 0.1913 0.1153
vn 0.9757 -0.1803 0.1247
vn 0.8969 -0.4304 -0.1020
vn 0.9165 -0.3802 0.1246
vn 0.9095 -0.2687 -0.3172
vn 0.3814 -0.9020 -0.2024
vn 0.3818 -0.9236 -0.0334
vn 0.2024 -0.9790 -0.0229
vn 0.3769 -0.9250 0.0484
vn 0.2071 -0.9779 0.0278
vn 0.2925 -0.9418 0.1655
vn 0.0145 -0.9332 0.3592
vn 0.1389 -0.9739 0.1796
vn 0.0027 -0.9800 0.1990
vn -0.0250 -0.9770 0.2117
vn -0.1248 -0.9672 0.2212
vn -0.2174 -0.9678 0.1268
vn -0.2079 -0.9778 0.0278
vn 0.3670 -0.8404 -0.3988
vn -0.3778 -0.9246 0.0492
vn -0.3960 -0.9049 0.1558
vn -0.3357 -0.9034 0.2667
vn -0.4336 -0.8660 0.2493
vn -0.2650 -0.9031 0.3378
vn -0.8621 -0.3265 0.3876
vn -0.8985 -0.3081 0.3126
vn -0.7750 -0.1786 0.6062
vn -0.8392 -0.2383 0.4888
vn -0.9407 -0.3129 0.1312
vn -0.9167 -0.3794 0.1251
vn -0.7357 -0.1414 0.6624
vn -0.7190 -0.2930 0.6302
vn -0.7271 0.2113 0.6532
vn -0.8512 0.1711 0.4961
vn -0.9316 0.1898 0.3099
vn -0.7032 0.3547 0.6162
vn -0.8227 0.3127 0.4748
vn -0.8898 0.3376 0.3072
vn -0.9322 0.3363 0.1340
vn -0.9141 0.3878 0.1186
vn -0.2069 0.9779 0.0289
vn -0.3764 0.9253 0.0470
vn -0.3935 0.9055 0.1586
vn -0.2138 0.9691 0.1229
vn -0.4227 0.8719 0.2473
vn -0.3249 0.9089 0.2613
vn -0.1193 0.9701 0.2111
vn -0.0238 0.9788 0.2033
vn 0.0029 0.9816 0.1909
vn 0.0298 0.9788 0.2025
vn 0.1101 0.9766 0.1848
vn 0.1911 0.9758 0.1064
vn 0.2089 0.9775 0.0288
vn -0.2542 0.9096 0.3286
vn -0.6440 0.2148 0.7343
vn -0.6068 0.3618 0.7078
vn -0.2357 0.8763 0.4201
vn -0.1476 0.9105 0.3864
vn -0.4823 0.1920 0.8547
vn -0.4646 0.3336 0.8203
vn -0.6525 -0.1379 0.7451
vn -0.4896 -0.0978 0.8664
vn -0.6216 -0.2869 0.7289
vn -0.4755 -0.2456 0.8447
vn -0.1549 -0.9022 0.4024
vn -0.2496 -0.8632 0.4389
vn -0.3006 -0.1268 0.9453
vn -0.3036 -0.2781 0.9113
vn -0.1095 -0.3404 0.9339
vn -0.1157 -0.1427 0.9830
vn -0.0455 -0.9220 0.3844
vn 0.0135 -0.3371 0.9414
vn 0.0142 -0.1431 0.9896
vn 0.0055 -0.9208 0.3900
vn 0.0369 -0.9033 0.4275
vn 0.1928 -0.9259 0.3248
vn 0.1352 -0.3405 0.9305
vn 0.1430 -0.1429 0.9794
vn 0.4723 -0.3552 0.8067
vn 0.5031 -0.1517 0.8508
vn 0.8024 -0.3716 0.4670
vn 0.8552 -0.1701 0.4896
vn 0.4210 -0.8880 0.1847
vn 0.8477 0.2180 0.4837
vn 0.4956 0.2373 0.8355
vn 0.7960 0.4119 0.4435
vn 0.9262 0.3612 0.1085
vn 0.4634 0.4309 0.7743
vn 0.1403 0.2431 0.9598
vn 0.1312 0.4285 0.8940
vn 0.0539 0.9281 0.3683
vn 0.1858 0.9309 0.3146
vn 0.3209 0.9287 0.1861
vn 0.3804 0.9237 0.0452
vn -0.2029 0.9587 0.1995
vn 0.2185 0.9590 0.1808
vn 0.3895 0.9106 0.1382
vn 0.9609 0.2769 -0.0001
vn 0.3851 0.8753 0.2924
vn 0.1908 0.9133 0.3598
vn -0.2186 0.8980 0.3819
vn -0.3949 0.9022 0.1736
vn -0.3986 0.8497 0.3453
vn -0.1892 -0.0517 0.9806
vn -0.3799 -0.0751 0.9220
vn -0.3911 0.1015 0.9147
vn -0.2030 0.1403 0.9691
vn 0.2398 0.1895 0.9521
vn 0.2290 0.0298 0.9730
vn -0.3720 -0.1582 0.9146
vn 0.3909 0.1926 0.9000
vn 0.4102 0.0418 0.9110
vn -0.3994 0.0455 0.9157
vn -0.9373 -0.0794 0.3392
vn -0.9175 -0.1180 0.3799
vn -0.9174 -0.0798 0.3898
vn -0.9335 -0.0264 0.3575
vn -0.3278 0.2151 0.9200
vn -0.9574 0.0862 0.2757
vn -0.4942 0.5417 0.6799
vn -0.9420 0.1841 0.2806
vn -0.9868 0.0722 0.1450
vn -0.9626 0.2354 -0.1343
vn -0.9479 0.3156 0.0423
vn 0.0055 0.9271 0.3748
vn -0.0433 0.9282 0.3696
vn 0.0140 0.2459 0.9692
vn 0.0131 0.4263 0.9045
vn -0.1060 0.4287 0.8972
vn -0.1134 0.2433 0.9633
vn -0.2959 0.2255 0.9282
vn -0.2917 0.3701 0.8820
vn 0.8743 -0.1869 -0.4480
vn 0.8812 -0.0370 -0.4712
vn 0.3423 0.1413 -0.9289
vn 0.3404 -0.0403 -0.9394
vn 0.3312 0.3081 -0.8918
vn 0.8637 0.2043 -0.4608
vn 0.8816 0.2420 -0.4052
vn 0.3508 0.2426 -0.9045
vt 0.884732 0.257408
vt 0.865289 0.257408
vt 0.865289 0.136286
vt 0.884732 0.136286
vt 0.964730 0.136286
vt 0.964730 0.157329
vt 0.964730 0.257408
vt 0.527251 0.018336
vt 0.527251 0.132147
vt 0.636852 0.132147
vt 0.636852 0.018336
vt 0.861042 0.257408
vt 0.839874 0.257408
vt 0.839874 0.136232
vt 0.861042 0.136232
vt 0.771874 0.257408
vt 0.771874 0.136232
vt 0.861042 0.273360
vt 0.839874 0.273360
vt 0.771874 0.273360
vt 0.884732 0.273360
vt 0.865289 0.273360
vt 0.873470 0.339873
vt 0.865289 0.339873
vt 0.861042 0.321491
vt 0.839874 0.321491
vt 0.873220 0.339873
vt 0.864878 0.364857
vt 0.861042 0.342952
vt 0.839874 0.342952
vt 0.771874 0.342952
vt 0.771874 0.321491
vt 0.752242 0.321491
vt 0.752242 0.342952
vt 0.752242 0.273360
vt 0.748789 0.347360
vt 0.728523 0.348490
vt 0.728570 0.273360
vt 0.748789 0.273360
vt 0.749468 0.364852
vt 0.652369 0.273360
vt 0.727918 0.347354
vt 0.728570 0.358037
vt 0.771874 0.351344
vt 0.771874 0.359632
vt 0.771874 0.364813
vt 0.752242 0.364813
vt 0.702818 0.348490
vt 0.686007 0.348490
vt 0.672182 0.348490
vt 0.652369 0.348490
vt 0.752242 0.344983
vt 0.839874 0.351344
vt 0.839874 0.359632
vt 0.861042 0.359632
vt 0.861042 0.351344
vt 0.897312 0.339873
vt 0.894482 0.364857
vt 0.877738 0.364857
vt 0.883228 0.339873
vt 0.964730 0.273360
vt 0.969366 0.339873
vt 0.935784 0.339873
vt 0.919042 0.339873
vt 0.903126 0.339873
vt 0.902298 0.364857
vt 0.921362 0.364857
vt 0.861042 0.364813
vt 0.839874 0.364813
vt 0.526747 0.347103
vt 0.545016 0.347109
vt 0.545016 0.364613
vt 0.526747 0.364613
vt 0.625783 0.347171
vt 0.625783 0.364613
vt 0.635904 0.364613
vt 0.635904 0.347177
vt 0.545016 0.327682
vt 0.625783 0.327682
vt 0.635904 0.327682
vt 0.625783 0.308445
vt 0.635904 0.308445
vt 0.545016 0.308445
vt 0.625783 0.273360
vt 0.635904 0.273360
vt 0.545016 0.273360
vt 0.625783 0.257408
vt 0.545016 0.257408
vt 0.635904 0.257408
vt 0.639470 0.257408
vt 0.652369 0.257408
vt 0.639470 0.273360
vt 0.639725 0.364398
vt 0.728570 0.257408
vt 0.672182 0.364398
vt 0.686007 0.364398
vt 0.702818 0.364398
vt 0.655125 0.154804
vt 0.651680 0.145248
vt 0.652369 0.136198
vt 0.728570 0.136198
vt 0.639642 0.156968
vt 0.635904 0.157329
vt 0.635904 0.136078
vt 0.640159 0.147231
vt 0.639470 0.136198
vt 0.582051 0.132147
vt 0.582051 0.103694
vt 0.582051 0.046789
vt 0.582051 0.018336
vt 0.552424 0.123113
vt 0.532203 0.098881
vt 0.527808 0.067143
vt 0.540636 0.037977
vt 0.566612 0.020641
vt 0.597490 0.020641
vt 0.623467 0.037977
vt 0.636294 0.067143
vt 0.631900 0.098881
vt 0.611679 0.123113
vt 0.546826 0.118834
vt 0.528083 0.085123
vt 0.534593 0.046789
vt 0.563308 0.021768
vt 0.600794 0.021768
vt 0.629510 0.046789
vt 0.636019 0.085123
vt 0.617277 0.118834
vt 0.545016 0.157329
vt 0.526747 0.157329
vt 0.526747 0.136078
vt 0.545016 0.136078
vt 0.625783 0.136078
vt 0.625783 0.157329
vt 0.526747 0.257408
vt 0.526747 0.273360
vt 0.974057 0.157329
vt 0.974057 0.257408
vt 0.974057 0.273360
vt 0.974057 0.364857
vt 0.526747 0.308445
vt 0.937578 0.364857
vt 0.526747 0.327682
vt 0.974057 0.136286
vt 0.534593 0.103694
vt 0.629510 0.103694
vt 0.748789 0.257408
vt 0.748789 0.136198
vt 0.752242 0.257408
vt 0.752242 0.136232
s 1
usemtl Material.004
f 2/1/1 21/2/2 4/3/3 1/4/4
f 2/1/1 1/4/4 3/5/5 172/5/6 171/6/7 164/7/8
f 1/8/4 5/9/9 7/10/10 3/11/5
f 6/8/11 5/9/9 1/10/4 4/11/3
f 5/8/9 6/9/11 11/10/12 8/11/13
f 9/8/14 7/9/10 5/10/9 8/11/13
f 92/8/15 9/9/16 8/10/17 10/11/18
f 10/8/18 8/9/17 11/10/19 12/11/20
f 14/8/21 12/9/22 11/10/23 6/11/24
f 10/8/18 12/9/20 13/10/25 93/11/26
f 12/8/22 14/9/21 15/10/27 13/11/28
f 17/8/29 15/9/27 14/10/21 16/11/30
f 14/8/21 6/9/24 4/10/31 16/11/30
f 21/12/32 18/13/33 16/14/30 4/15/31
f 20/16/34 17/17/29 16/14/30 18/13/33
f 22/18/35 19/19/36 18/13/33 21/12/32
f 18/13/33 19/19/36 31/20/37 20/16/34
f 23/21/38 22/22/39 21/2/2 2/1/1
f 25/23/40 24/24/41 22/22/39 23/21/38
f 24/25/42 27/26/43 19/19/36 22/18/35
f 48/27/44 26/28/45 24/24/41 25/23/40
f 26/29/46 28/30/47 27/26/43 24/25/42
f 30/31/48 29/32/49 27/26/43 28/30/47
f 31/20/37 19/19/36 27/26/43 29/32/49
f 32/33/50 29/32/49 30/31/48 34/34/51
f 29/32/49 32/33/50 33/35/52 31/20/37
f 32/36/53 35/37/54 36/38/55 33/39/56
f 35/37/54 32/36/53 34/40/57 37/37/58
f 70/41/59 36/38/55 35/37/54 37/37/58 38/42/60 39/43/61 40/44/62 41/45/63 55/46/64 56/47/65 75/48/66 74/49/67 73/50/68 72/51/69
f 37/37/58 34/40/57 39/43/61 38/42/60
f 34/34/51 30/31/48 40/44/62 39/52/61
f 41/45/63 40/44/62 42/53/70 43/54/71
f 40/44/62 30/31/48 28/30/47 42/53/70
f 45/55/72 43/54/71 42/53/70 44/56/73
f 44/56/73 42/53/70 28/30/47 26/29/46
f 47/57/74 45/58/75 44/59/76 46/60/77
f 46/60/77 44/59/76 26/28/45 48/27/44
f 23/21/38 166/61/78 168/62/79 170/63/80 50/64/81 49/65/82 47/57/74 46/60/77 48/27/44 25/23/40
f 49/65/82 51/66/83 45/58/75 47/57/74
f 50/64/81 52/67/84 51/66/83 49/65/82
f 51/68/85 53/69/86 43/54/71 45/55/72
f 52/70/87 54/71/88 53/72/86 51/73/85
f 53/72/86 54/71/88 57/74/89 55/75/64
f 43/54/71 53/69/86 55/46/64 41/45/63
f 56/76/65 55/75/64 57/74/89 58/77/90
f 54/71/88 61/78/91 59/79/92 57/74/89
f 58/77/90 57/74/89 59/79/92 60/80/93
f 60/80/93 59/79/92 62/81/94 63/82/95
f 61/78/91 64/83/96 62/81/94 59/79/92
f 65/84/97 68/85/98 63/82/95 62/81/94
f 66/86/99 65/84/97 62/81/94 64/83/96
f 67/87/100 65/84/97 66/86/99 161/88/101
f 67/87/100 69/89/102 68/85/98 65/84/97
f 69/90/103 71/91/104 70/41/59 68/92/105
f 68/92/105 70/41/59 72/51/69 63/93/106
f 76/94/107 36/38/55 70/41/59 71/91/104
f 73/50/68 60/95/108 63/93/106 72/51/69
f 74/49/67 58/96/109 60/95/108 73/50/68
f 75/48/66 56/97/65 58/96/109 74/49/67
f 71/91/104 77/98/110 79/99/111 81/100/112 82/101/113 76/94/107
f 78/102/114 77/98/110 71/91/104 69/90/103
f 77/103/110 78/103/114 80/104/115 79/104/111
f 81/100/112 79/99/111 80/105/115 83/106/116
f 81/8/112 84/9/117 86/10/118 82/11/113
f 153/107/119 140/108/120 85/109/121 84/110/117 81/109/112 83/108/116
f 87/8/122 84/9/117 85/10/121 89/11/123
f 88/8/124 86/9/118 84/10/117 87/11/122
f 93/8/26 88/9/125 87/10/126 90/11/127
f 90/8/127 87/9/126 89/10/128 91/11/129
f 90/107/127 91/111/129 138/112/130 131/113/131 130/114/132 129/115/133 128/116/134 98/117/135 96/118/136 94/119/137 92/120/15
f 92/8/15 10/9/18 93/10/26 90/11/127
f 93/8/26 13/9/25 185/10/138 88/11/125
f 94/8/137 95/9/139 9/10/16 92/11/15
f 96/8/136 99/9/140 95/10/139 94/11/137
f 96/8/136 97/9/141 101/10/142 99/11/140
f 98/8/135 121/9/143 97/10/141 96/11/136
f 100/8/144 99/9/145 101/10/146 102/11/147
f 99/8/145 100/9/144 184/10/148 95/11/149
f 103/8/150 102/9/147 101/10/146 97/11/151
f 105/8/152 104/9/153 102/10/147 103/11/150
f 104/8/153 107/9/154 100/10/144 102/11/147
f 105/8/152 114/9/155 106/10/156 104/11/153
f 107/8/154 104/9/153 106/10/156 109/11/157
f 184/8/148 100/9/144 107/10/154 108/11/158
f 110/8/159 108/9/158 107/10/154 109/11/157
f 112/8/160 110/9/161 109/10/162 111/11/163
f 111/8/163 109/9/162 106/10/164 114/11/165
f 112/107/160 111/121/163 113/122/166 176/123/167 175/124/168 147/125/169 146/126/170 148/127/171 149/128/172
f 111/8/163 114/9/165 115/10/173 113/11/166
f 114/8/155 105/9/152 117/10/174 115/11/175
f 113/8/166 115/9/173 116/10/176 183/11/177
f 117/8/174 118/9/178 116/10/179 115/11/175
f 118/8/178 117/9/174 119/10/180 120/11/181
f 103/8/150 119/9/180 117/10/174 105/11/152
f 119/8/180 121/9/182 122/10/183 120/11/181
f 121/8/182 119/9/180 103/10/150 97/11/151
f 98/8/135 123/9/184 122/10/185 121/11/143
f 124/8/186 120/9/181 122/10/183 123/11/187
f 125/8/188 126/9/189 124/10/186 123/11/187
f 128/8/134 125/9/190 123/10/184 98/11/135
f 127/8/191 180/9/192 126/10/189 125/11/188
f 129/8/133 127/9/193 125/10/190 128/11/134
f 130/8/132 132/9/194 127/10/193 129/11/133
f 131/8/131 134/9/195 132/10/194 130/11/132
f 132/8/196 133/9/197 180/10/192 127/11/191
f 134/8/198 135/9/199 133/10/197 132/11/196
f 136/8/200 137/8/201 135/9/199 134/11/198
f 138/8/130 136/9/202 134/10/195 131/11/131
f 89/8/123 85/9/121 137/8/201 136/11/200
f 91/8/129 89/9/128 136/10/202 138/11/130
f 137/8/201 85/9/121 140/10/120 139/11/203
f 135/9/199 137/8/201 139/11/203 142/10/204
f 141/8/205 139/11/203 140/10/120 151/11/206
f 144/8/207 142/10/204 139/11/203 141/11/205
f 133/8/197 135/9/199 142/10/204 143/11/208
f 145/8/209 143/9/208 142/10/204 144/11/207
f 147/8/169 145/9/210 144/10/211 146/11/170
f 146/8/170 144/9/211 141/10/212 148/11/171
f 148/8/171 141/9/212 151/10/213 149/11/172
f 155/8/214 112/9/160 149/10/172 150/11/215
f 152/8/216 150/9/215 149/10/172 151/11/213
f 153/8/119 152/9/217 151/10/206 140/11/120
f 153/8/119 83/9/116 80/10/115 152/11/217
f 150/8/215 152/9/216 80/10/218 154/11/219
f 157/8/220 155/9/214 150/10/215 154/11/219
f 110/8/161 112/9/160 155/10/214 156/11/221
f 155/8/214 157/9/220 158/10/222 156/11/221
f 159/129/223 160/130/224 158/131/225 157/132/226
f 159/129/223 157/132/226 154/133/227 162/134/228
f 160/130/224 159/129/223 161/88/101 163/135/229
f 67/87/100 161/88/101 159/129/223 162/134/228
f 162/134/228 154/133/227 80/104/230 78/103/231
f 162/134/228 78/103/231 69/89/102 67/87/100
f 66/86/99 165/136/232 163/135/229 161/88/101
f 171/6/7 160/137/233 163/138/234 164/7/8
f 165/139/235 166/61/78 164/7/8 163/138/234
f 166/61/78 165/139/235 167/140/236 168/62/79
f 165/136/232 66/86/99 64/83/96 167/141/237
f 168/62/79 167/140/236 169/142/238 170/63/80
f 167/141/237 64/83/96 61/78/91 169/143/239
f 169/143/239 61/78/91 54/71/88 52/70/87
f 170/63/80 169/142/238 52/67/84 50/64/81
f 164/7/8 166/61/78 23/21/38 2/1/1
f 171/6/7 172/5/6 158/144/240 160/137/233
f 3/8/5 173/9/241 158/10/240 172/11/6
f 174/8/242 156/9/243 158/10/240 173/11/241
f 7/107/10 184/145/148 108/123/158 174/110/242 173/126/241 3/146/5
f 108/8/158 110/9/159 156/10/243 174/11/242
f 145/8/210 147/9/169 175/10/168 177/11/244
f 177/8/244 175/9/168 176/10/167 178/11/245
f 179/8/246 177/9/247 178/10/248 181/11/249
f 143/8/208 145/9/209 177/10/247 179/11/246
f 179/8/246 180/9/192 133/10/197 143/11/208
f 181/8/249 126/9/189 180/10/192 179/11/246
f 124/8/186 126/9/189 181/10/249 182/11/250
f 183/8/251 182/9/250 181/10/249 178/11/248
f 182/8/250 118/9/178 120/10/181 124/11/186
f 182/8/250 183/9/251 116/10/179 118/11/178
f 113/8/166 183/9/177 178/10/245 176/11/167
f 95/8/149 184/9/148 7/10/10 9/11/14
f 86/8/118 88/9/124 185/10/252 186/11/253
f 15/8/27 186/9/254 185/10/255 13/11/28
f 17/8/29 187/9/256 186/10/254 15/11/27
f 187/8/257 82/9/113 86/10/118 186/11/253
f 188/147/258 76/94/107 82/101/113 187/148/257
f 20/16/34 188/149/259 187/150/256 17/17/29
f 33/39/56 36/38/55 76/94/107 188/147/258
f 31/20/37 33/35/52 188/149/259 20/16/34
