# Blender 5.0.1
# www.blender.org
mtllib right_leg.mtl
o head.006
v -0.332658 -2.735033 -0.577533
v -0.336401 -2.812047 0.099557
v -0.299446 -1.879740 -0.278011
v -0.350647 -2.734144 -0.623095
v -0.332633 -3.002606 -0.658284
v -0.350635 -2.999584 -0.703211
v -0.335282 -3.017293 0.179262
v -0.350853 -3.046395 -0.669352
v -0.353495 -3.061269 0.179001
v -0.394809 -3.064447 -0.680048
v -0.358688 -3.037472 -0.706152
v -0.394250 -3.046239 -0.718744
v -1.012434 -3.046345 -0.731759
v -0.394387 -3.003825 -0.724253
v -0.394374 -2.733783 -0.642738
v -1.008330 -3.003937 -0.737175
v -1.008305 -2.733895 -0.655653
v -1.055247 -2.999578 -0.718253
v -1.055515 -2.734262 -0.638242
v -1.048619 -3.037565 -0.721132
v -1.079728 -3.002798 -0.674924
v -1.080742 -2.735133 -0.594323
v -1.198273 -3.017462 0.166826
v -1.061683 -3.046507 -0.686098
v -1.017241 -3.064546 -0.693150
v -1.179998 -3.061406 0.167087
v -1.135861 -3.079601 0.167728
v -1.179998 -3.061406 0.492726
v -1.198273 -3.017467 0.492378
v -1.140263 -3.061406 0.641828
v -1.135874 -3.079601 0.488585
v -1.100771 -3.079601 0.620306
v -1.010065 -3.079582 0.712474
v -0.878331 -3.079563 0.749728
v -1.033234 -3.061393 0.750586
v -0.884742 -3.061369 0.792584
v -1.042835 -3.017462 0.764309
v -0.887397 -3.017449 0.808273
v -1.042835 -2.812140 0.752687
v -1.156623 -3.017467 0.648687
v -1.156623 -2.812165 0.637065
v -1.198273 -2.812177 0.480756
v -1.140748 -2.768232 0.624746
v -1.102419 -2.750032 0.599973
v -1.033234 -2.768214 0.733989
v -1.179724 -2.768239 0.478542
v -1.134928 -2.750032 0.478157
v -1.176957 -2.768046 0.229929
v -1.134978 -2.750032 0.229929
v -1.174395 -2.747321 0.169898
v -1.188735 -2.811425 0.229929
v -1.188735 -2.811425 0.160887
v -1.188735 -2.811425 0.091846
v -1.168643 -2.739367 0.109294
v -1.148552 -2.667304 0.126749
v -0.928183 -1.783077 0.337443
v -1.151015 -2.676463 0.167410
v -1.117138 -2.689540 0.182403
v -0.910834 -1.787119 0.382128
v -0.867729 -1.795103 0.400546
v -0.883181 -1.667641 0.382445
v -0.839920 -1.675687 0.400981
v -0.771438 -1.033886 0.230712
v -0.900959 -1.663493 0.337692
v -0.792475 -1.048219 0.190356
v -0.898627 -1.650260 -0.265326
v -0.807343 -1.132545 -0.331277
v -0.880544 -1.652431 -0.310297
v -0.919868 -1.770901 -0.276506
v -0.901357 -1.773146 -0.321601
v -0.857872 -1.780360 -0.340368
v -0.837228 -1.659650 -0.328926
v -0.360640 -1.867571 -0.341599
v -0.347389 -1.746022 -0.328926
v -0.317268 -1.875598 -0.323038
v -0.304054 -1.754081 -0.310290
v -0.286244 -1.758241 -0.265301
v -0.213236 -1.239083 -0.375874
v -0.194942 -1.240432 -0.331265
v -0.189351 -1.103655 -0.357412
v -0.256758 -1.232187 -0.394355
v -0.231499 -1.089061 -0.374842
v -0.746602 -1.145809 -0.394355
v -0.721344 -1.002689 -0.374842
v -0.789733 -1.137458 -0.375881
v -0.765842 -1.002005 -0.357412
v -0.746410 -0.891817 -0.274840
v -0.786723 -1.015617 -0.315333
v -0.770450 -0.923306 -0.246161
v -0.761514 -0.872671 -0.134848
v -0.736236 -0.834161 -0.148105
v -0.760134 -0.864792 -0.089492
v -0.761899 -0.874847 0.033071
v -0.734502 -0.824336 -0.091519
v -0.736517 -0.835772 0.047889
v -0.688014 -0.813908 -0.092358
v -0.690122 -0.825916 0.054026
v -0.198181 -0.900274 -0.092358
v -0.689904 -0.824535 -0.153596
v -0.200059 -0.910913 -0.153596
v -0.700594 -0.885095 -0.286717
v -0.210742 -0.971467 -0.286717
v -0.169913 -0.993467 -0.274840
v -0.159746 -0.935811 -0.148105
v -0.158067 -1.031287 -0.246161
v -0.174340 -1.123597 -0.315333
v -0.149138 -0.980651 -0.134848
v -0.147745 -0.972773 -0.089498
v -0.149523 -0.982828 0.033071
v -0.158018 -0.925986 -0.091519
v -0.160032 -0.937422 0.047889
v -0.173370 -1.013055 0.164506
v -0.200302 -0.912281 0.054026
v -0.214535 -0.992945 0.178398
v -0.237064 -1.120637 0.247427
v -0.704337 -0.906579 0.178398
v -0.726835 -1.034278 0.247427
v -0.749848 -0.911404 0.164500
v -0.773099 -0.938336 0.130959
v -0.350188 -1.762040 0.400981
v -0.194954 -1.135443 0.230663
v -0.180036 -1.155895 0.190194
v -0.306728 -1.769284 0.382414
v -0.319960 -1.890964 0.380579
v -0.288576 -1.771467 0.337599
v -0.301803 -1.893147 0.335727
v -0.331153 -2.676855 0.134304
v -0.333777 -2.744454 0.116931
v -0.350579 -2.686947 0.176514
v -0.348228 -2.749056 0.180525
v -0.394804 -2.689690 0.193851
v -0.396358 -2.732278 0.201120
v -0.363445 -1.883744 0.399253
v -0.398379 -2.749920 0.240544
v -1.125825 -2.732316 0.190306
v -0.354080 -2.768133 0.240544
v -0.398416 -2.749920 0.488771
v -0.353775 -2.768127 0.490444
v -0.431292 -2.749926 0.611072
v -0.417575 -2.768121 0.660346
v -0.384021 -2.768121 0.602982
v -0.522397 -2.749938 0.701013
v -0.475735 -2.768133 0.717766
v -0.653497 -2.749963 0.734312
v -0.533701 -2.768133 0.750281
v -0.648311 -2.768152 0.779395
v -0.551000 -2.812053 0.775956
v -0.499730 -2.776124 0.742918
v -0.495409 -2.811723 0.752302
v -0.495409 -3.017051 0.763924
v -0.446440 -2.812059 0.716920
v -0.446440 -3.017368 0.728542
v -0.421219 -2.812059 0.692022
v -0.421219 -3.017362 0.703644
v -0.385171 -2.811885 0.643482
v -0.392403 -2.776149 0.637052
v -0.385171 -3.017138 0.655098
v -0.360783 -2.812096 0.588158
v -0.335282 -2.812090 0.493199
v -0.360783 -3.017299 0.599774
v -0.335282 -3.017299 0.504814
v -0.384077 -3.061275 0.618796
v -0.353495 -3.061269 0.504895
v -0.432617 -3.079495 0.631033
v -0.392466 -3.053179 0.652617
v -0.417507 -3.061294 0.676868
v -0.475007 -3.061306 0.733641
v -0.522397 -3.079507 0.719668
v -0.499507 -3.053179 0.758427
v -0.533347 -3.061319 0.766790
v -0.648311 -3.061338 0.795991
v -0.551000 -3.017405 0.787578
v -0.646165 -3.017418 0.811749
v -0.766781 -3.017430 0.810014
v -0.646165 -2.812065 0.800126
v -0.766781 -2.812090 0.798385
v -0.887397 -2.812109 0.796651
v -0.766520 -2.768171 0.777691
v -0.884742 -2.768189 0.775987
v -0.765885 -2.749975 0.732696
v -0.878331 -2.749994 0.731073
v -1.010065 -2.750013 0.693819
v -0.766520 -3.061356 0.794288
v -0.765885 -3.079545 0.751351
v -0.653497 -3.079532 0.752967
v -0.397465 -3.079489 0.500126
v -0.397465 -3.079489 0.178367
v -0.336401 -2.812047 0.240544
v -0.336401 -2.812047 0.170053
v -0.160717 -1.046310 0.130959
vn 0.9223 0.0477 -0.3835
vn 0.9997 0.0007 0.0245
vn 0.9809 -0.1948 -0.0006
vn 0.9090 -0.3436 -0.2358
vn 0.9292 -0.0176 -0.3692
vn 0.9725 -0.1020 0.2095
vn 0.9827 -0.0619 0.1746
vn 0.9950 -0.0139 0.0989
vn 0.9263 0.1019 -0.3627
vn 0.9297 0.0212 -0.3676
vn 0.9341 -0.0829 -0.3472
vn 0.8499 -0.4468 -0.2795
vn 0.9153 -0.2388 -0.3243
vn 0.9238 -0.3828 -0.0019
vn 0.1950 -0.9808 -0.0083
vn 0.1968 -0.9565 -0.2151
vn 0.3909 -0.9075 -0.1536
vn 0.3829 -0.9238 -0.0075
vn 0.1904 -0.8986 -0.3953
vn 0.3890 -0.8544 -0.3445
vn 0.2112 0.0857 -0.9737
vn 0.4033 0.1285 -0.9060
vn 0.3990 -0.0686 -0.9144
vn 0.2026 -0.1024 -0.9739
vn -0.1850 -0.9533 -0.2387
vn -0.1597 -0.8927 -0.4214
vn -0.1622 -0.0861 -0.9830
vn -0.1548 0.0933 -0.9835
vn -0.1628 0.3099 -0.9367
vn 0.2162 0.2948 -0.9308
vn 0.4029 0.2767 -0.8724
vn -0.3423 0.1413 -0.9289
vn -0.3312 0.3081 -0.8918
vn -0.3404 -0.0403 -0.9394
vn -0.8637 0.2043 -0.4607
vn -0.8812 -0.0371 -0.4712
vn -0.9441 -0.1055 -0.3124
vn -0.9430 0.1694 -0.2863
vn -0.8743 -0.1870 -0.4479
vn -0.9095 -0.2687 -0.3172
vn -0.9892 0.1262 -0.0746
vn -0.9817 -0.1781 -0.0671
vn -0.9244 -0.3753 -0.0683
vn -0.2024 -0.9790 -0.0229
vn -0.3818 -0.9236 -0.0334
vn -0.3814 -0.9020 -0.2024
vn -0.3670 -0.8404 -0.3988
vn -0.2071 -0.9779 0.0278
vn -0.3769 -0.9250 0.0484
vn -0.9165 -0.3802 0.1246
vn -0.9435 -0.3056 0.1281
vn -0.7546 -0.1718 0.6333
vn -0.7398 -0.1433 0.6573
vn -0.1071 -0.9748 0.1958
vn -0.4210 -0.8881 0.1846
vn 0.2079 -0.9778 0.0278
vn 0.2174 -0.9678 0.1268
vn 0.2445 -0.9344 0.2589
vn 0.0250 -0.9770 0.2117
vn -0.0027 -0.9800 0.1990
vn -0.0467 -0.9468 0.3185
vn -0.0618 -0.9242 0.3768
vn -0.1928 -0.9259 0.3248
vn -0.0369 -0.9033 0.4275
vn -0.4723 -0.3552 0.8067
vn -0.1352 -0.3405 0.9305
vn -0.1430 -0.1429 0.9794
vn -0.5031 -0.1517 0.8508
vn -0.1403 0.2431 0.9598
vn -0.4956 0.2373 0.8355
vn -0.8477 0.2180 0.4837
vn -0.9421 0.3147 0.1159
vn -0.7960 0.4119 0.4435
vn -0.9262 0.3612 0.1085
vn -0.4634 0.4309 0.7743
vn -0.1911 0.9758 0.1064
vn -0.2089 0.9775 0.0288
vn -0.3804 0.9237 0.0452
vn -0.3209 0.9287 0.1861
vn -0.1101 0.9766 0.1848
vn -0.1858 0.9309 0.3146
vn -0.3895 0.9106 0.1381
vn -0.2185 0.9590 0.1807
vn -0.9686 0.2172 -0.1206
vn -0.9609 0.2770 -0.0002
vn -0.1907 0.9133 0.3598
vn -0.3851 0.8753 0.2924
vn -0.9584 0.2831 -0.0353
vn -0.9816 0.1907 -0.0026
vn -0.9694 0.2444 -0.0212
vn -0.9489 0.3027 0.0893
vn -0.9653 0.1238 -0.2301
vn -0.9835 0.1740 0.0492
vn -0.9644 0.2529 0.0771
vn -0.9334 0.2051 0.2943
vn -0.2290 0.0298 0.9730
vn -0.2060 -0.0692 0.9761
vn -0.4023 -0.0152 0.9154
vn -0.4102 0.0418 0.9110
vn -0.3909 0.1926 0.9000
vn -0.2398 0.1895 0.9521
vn -0.1673 0.1449 0.9752
vn -0.3582 0.1824 0.9156
vn -0.8989 0.2256 0.3756
vn -0.9449 0.1537 0.2890
vn -0.2636 0.3646 0.8930
vn -0.3207 0.3858 0.8651
vn -0.8863 0.2946 0.3574
vn -0.8771 0.4303 0.2134
vn -0.8908 0.3831 0.2444
vn -0.9252 0.3727 0.0714
vn -0.9269 0.3753 -0.0095
vn -0.9285 0.3661 -0.0624
vn -0.9316 0.3362 -0.1380
vn -0.9468 0.2502 -0.2024
vn -0.9631 0.1715 -0.2076
vn -0.9481 0.1635 -0.2726
vn -0.9118 0.1613 -0.3777
vn -0.9136 0.1530 -0.3768
vn -0.8816 0.2420 -0.4052
vn -0.1680 0.2348 -0.9574
vn -0.3508 0.2426 -0.9045
vn -0.2023 0.0201 -0.9791
vn -0.3873 0.0532 -0.9204
vn 0.2201 0.1962 -0.9555
vn 0.1929 -0.0398 -0.9804
vn 0.3842 -0.0613 -0.9212
vn 0.4078 0.1713 -0.8969
vn 0.9823 -0.0433 -0.1822
vn 0.9167 -0.1367 -0.3755
vn 0.9635 -0.1682 -0.2082
vn 0.9116 -0.1603 -0.3786
vn 0.3818 -0.0618 -0.9222
vn 0.1919 -0.0302 -0.9810
vn 0.9752 -0.0886 -0.2028
vn 0.9381 -0.0234 -0.3457
vn 0.4466 0.2716 -0.8525
vn 0.2554 0.3287 -0.9093
vn -0.1279 0.3963 -0.9092
vn -0.1911 0.0374 -0.9809
vn -0.3808 0.0726 -0.9218
vn -0.3275 0.4081 -0.8522
vn -0.8898 0.2987 -0.3450
vn -0.2636 0.7701 -0.5809
vn -0.0598 0.7826 -0.6197
vn -0.8639 0.4453 -0.2351
vn -0.8480 0.5176 -0.1136
vn -0.8450 0.5344 -0.0174
vn -0.8528 0.5079 0.1217
vn -0.2194 0.9747 -0.0421
vn -0.2361 0.9241 0.3004
vn -0.0307 0.9468 0.3204
vn -0.0204 0.9988 -0.0448
vn -0.0280 0.9556 -0.2933
vn -0.2267 0.9341 -0.2758
vn 0.3606 0.9317 -0.0448
vn 0.3525 0.8793 0.3204
vn 0.3529 0.8885 -0.2934
vn 0.3235 0.7150 -0.6197
vn 0.5105 0.6338 -0.5811
vn 0.5321 0.8005 -0.2760
vn 0.9977 0.0267 -0.0625
vn 0.9904 -0.0025 -0.1382
vn 0.9640 0.1234 -0.2355
vn 0.9738 0.1968 -0.1137
vn 0.9993 0.0359 -0.0096
vn 0.9969 0.0341 0.0714
vn 0.9865 -0.0244 0.1616
vn 0.9755 -0.0975 0.1972
vn 0.9680 -0.1127 0.2240
vn 0.9768 0.2136 -0.0174
vn 0.9750 0.1860 0.1218
vn 0.5393 0.8411 -0.0422
vn 0.5376 0.7879 0.3004
vn 0.9574 0.0862 0.2757
vn 0.4941 0.5418 0.6799
vn 0.3062 0.6168 0.7252
vn -0.0630 0.7943 0.6043
vn 0.4332 0.2530 0.8650
vn 0.3653 0.2742 0.8896
vn -0.1035 0.5641 0.8192
vn -0.8190 0.4875 0.3026
vn 0.3286 0.0888 0.9403
vn 0.4854 0.0847 0.8702
vn 0.9335 -0.0264 0.3576
vn 0.9174 -0.0797 0.3899
vn 0.9175 -0.1180 0.3799
vn 0.1773 -0.1392 0.9743
vn 0.3720 -0.1582 0.9146
vn 0.9373 -0.0794 0.3393
vn 0.9819 0.0918 0.1655
vn 0.1892 -0.0517 0.9806
vn 0.2030 0.1403 0.9691
vn 0.3911 0.1015 0.9147
vn 0.3799 -0.0751 0.9220
vn 0.2029 0.9587 0.1995
vn 0.3949 0.9022 0.1736
vn 0.3986 0.8496 0.3453
vn 0.2186 0.8980 0.3819
vn 0.3764 0.9253 0.0470
vn 0.2069 0.9779 0.0289
vn 0.2138 0.9691 0.1229
vn 0.3935 0.9056 0.1586
vn -0.0298 0.9788 0.2025
vn -0.0029 0.9816 0.1909
vn 0.0238 0.9788 0.2033
vn 0.1193 0.9701 0.2111
vn 0.2542 0.9096 0.3286
vn 0.3249 0.9089 0.2613
vn 0.4227 0.8719 0.2473
vn 0.1476 0.9105 0.3864
vn 0.2357 0.8763 0.4201
vn 0.0433 0.9282 0.3696
vn 0.2917 0.3701 0.8820
vn 0.1060 0.4287 0.8972
vn 0.1134 0.2433 0.9633
vn 0.2959 0.2255 0.9282
vn 0.4823 0.1920 0.8547
vn 0.4646 0.3336 0.8203
vn 0.6440 0.2148 0.7343
vn 0.6068 0.3618 0.7078
vn 0.4896 -0.0978 0.8665
vn 0.6525 -0.1379 0.7451
vn 0.3006 -0.1268 0.9453
vn 0.7357 -0.1414 0.6624
vn 0.7271 0.2113 0.6532
vn 0.7032 0.3547 0.6162
vn 0.8512 0.1711 0.4961
vn 0.8227 0.3127 0.4748
vn 0.9130 -0.1212 0.3895
vn 0.9316 0.1898 0.3099
vn 0.8898 0.3376 0.3072
vn 0.8558 -0.1600 0.4919
vn 0.9141 0.3878 0.1186
vn 0.9720 0.1990 0.1249
vn 0.9396 -0.3114 0.1417
vn 0.8985 -0.3081 0.3126
vn 0.8592 -0.4785 0.1810
vn 0.8436 -0.3798 0.3796
vn 0.3778 -0.9246 0.0492
vn 0.3960 -0.9049 0.1558
vn 0.4335 -0.8660 0.2493
vn 0.3357 -0.9034 0.2667
vn 0.7190 -0.2930 0.6302
vn 0.3491 -0.8668 0.3562
vn 0.6216 -0.2869 0.7289
vn 0.2496 -0.8632 0.4389
vn 0.1271 -0.8658 0.4841
vn 0.4755 -0.2456 0.8448
vn 0.3036 -0.2781 0.9113
vn 0.0455 -0.9220 0.3844
vn 0.1094 -0.3404 0.9339
vn 0.1157 -0.1427 0.9830
vn -0.0135 -0.3371 0.9414
vn -0.0142 -0.1431 0.9896
vn -0.0140 0.2459 0.9692
vn -0.0131 0.4263 0.9045
vn -0.1312 0.4285 0.8940
vn -0.0539 0.9281 0.3683
vn -0.0055 0.9271 0.3748
vn -0.0055 -0.9208 0.3900
vn 0.9962 0.0729 0.0476
vn 0.9863 0.1639 0.0191
vn 0.9479 0.3156 0.0423
vt 0.370517 0.015192
vt 0.479785 0.015192
vt 0.479785 0.132673
vt 0.370517 0.132673
vt 0.117153 0.260088
vt 0.050043 0.262587
vt 0.048740 0.149578
vt 0.049175 0.136338
vt 0.117153 0.136338
vt 0.141819 0.136338
vt 0.141819 0.260088
vt 0.399903 0.132673
vt 0.454689 0.123348
vt 0.474848 0.098334
vt 0.479229 0.065573
vt 0.466441 0.035466
vt 0.440543 0.017572
vt 0.409759 0.017572
vt 0.383862 0.035466
vt 0.371073 0.065573
vt 0.375455 0.098334
vt 0.395614 0.123348
vt 0.472466 0.103303
vt 0.472466 0.044562
vt 0.425151 0.015192
vt 0.377837 0.044562
vt 0.377837 0.103303
vt 0.339635 0.135528
vt 0.365879 0.136100
vt 0.365879 0.147571
vt 0.339852 0.144391
vt 0.339635 0.260664
vt 0.286987 0.260664
vt 0.286987 0.136100
vt 0.341155 0.153705
vt 0.371087 0.147571
vt 0.371087 0.136108
vt 0.371361 0.152151
vt 0.365662 0.261119
vt 0.399630 0.148716
vt 0.399903 0.260664
vt 0.371095 0.260664
vt 0.399903 0.136108
vt 0.399903 0.273550
vt 0.371095 0.273550
vt 0.365879 0.273550
vt 0.339635 0.273550
vt 0.399903 0.321993
vt 0.371095 0.321993
vt 0.365879 0.321169
vt 0.339635 0.320596
vt 0.339635 0.356260
vt 0.311057 0.356260
vt 0.297969 0.356260
vt 0.293177 0.356260
vt 0.286987 0.356260
vt 0.286987 0.343475
vt 0.286987 0.321169
vt 0.286987 0.273550
vt 0.258228 0.321169
vt 0.258228 0.273550
vt 0.258228 0.260664
vt 0.258228 0.136100
vt 0.227675 0.260419
vt 0.227675 0.136009
vt 0.254341 0.136009
vt 0.254341 0.260419
vt 0.227675 0.273808
vt 0.254341 0.273808
vt 0.170839 0.260419
vt 0.170839 0.273808
vt 0.170839 0.136009
vt 0.145361 0.273808
vt 0.145361 0.260419
vt 0.145361 0.136009
vt 0.117153 0.273928
vt 0.141819 0.273928
vt 0.117153 0.337424
vt 0.141819 0.314855
vt 0.145361 0.293893
vt 0.170839 0.293893
vt 0.141819 0.331698
vt 0.145361 0.320960
vt 0.170839 0.320960
vt 0.227675 0.320960
vt 0.227675 0.293893
vt 0.254341 0.293893
vt 0.254341 0.320960
vt 0.258228 0.343475
vt 0.254341 0.343369
vt 0.227675 0.343369
vt 0.258228 0.356260
vt 0.258228 0.364687
vt 0.297334 0.364687
vt 0.366335 0.364687
vt 0.371095 0.364744
vt 0.371095 0.354428
vt 0.399903 0.354428
vt 0.399903 0.364744
vt 0.227675 0.364722
vt 0.227675 0.355596
vt 0.254341 0.356260
vt 0.254341 0.364722
vt 0.455658 0.364744
vt 0.455658 0.354428
vt 0.170839 0.355596
vt 0.170839 0.364722
vt 0.170839 0.343369
vt 0.145361 0.343369
vt 0.145361 0.355596
vt 0.100374 0.337424
vt 0.112541 0.337424
vt 0.141819 0.364449
vt 0.106784 0.364449
vt 0.095351 0.337424
vt 0.081601 0.337424
vt 0.070513 0.337424
vt 0.049175 0.337424
vt 0.049175 0.273928
vt 0.100030 0.364449
vt 0.083563 0.364449
vt 0.145361 0.364722
vt 0.479588 0.354428
vt 0.479588 0.364744
vt 0.032534 0.364449
vt 0.479588 0.336979
vt 0.455658 0.336979
vt 0.399903 0.336979
vt 0.479588 0.321993
vt 0.455658 0.321993
vt 0.371095 0.336979
vt 0.365879 0.356260
vt 0.455658 0.273550
vt 0.479588 0.273550
vt 0.032534 0.332425
vt 0.032534 0.273928
vt 0.032534 0.260088
vt 0.455658 0.260664
vt 0.479588 0.260664
vt 0.033837 0.152402
vt 0.032534 0.136338
vt 0.455658 0.147644
vt 0.455658 0.136108
vt 0.479588 0.136108
vt 0.479588 0.147644
vt 0.460269 0.118931
vt 0.478955 0.084133
vt 0.443837 0.018735
vt 0.406465 0.018735
vt 0.371347 0.084133
vt 0.390033 0.118931
s 1
usemtl Material.004
f 1/1/1 2/2/2 7/3/3 5/4/4
f 3/5/5 126/6/6 127/7/7 128/8/8 2/8/2 1/9/1
f 3/5/5 1/9/1 4/10/9 75/11/10
f 6/1/11 4/2/9 1/3/1 5/4/4
f 5/1/4 8/2/12 11/3/13 6/4/11
f 9/1/14 8/2/12 5/3/4 7/4/3
f 187/1/15 10/2/16 8/3/17 9/4/18
f 10/1/16 12/2/19 11/3/20 8/4/17
f 14/1/21 6/2/22 11/3/23 12/4/24
f 10/1/16 25/2/25 13/3/26 12/4/19
f 12/1/24 13/2/27 16/3/28 14/4/21
f 17/1/29 15/2/30 14/3/21 16/4/28
f 14/1/21 15/2/30 4/3/31 6/4/22
f 17/1/29 16/2/28 18/3/32 19/4/33
f 16/1/28 13/2/27 20/3/34 18/4/32
f 19/1/35 18/2/36 21/3/37 22/4/38
f 21/1/37 18/2/36 20/3/39 24/4/40
f 53/1/41 22/2/38 21/3/37 23/4/42
f 24/1/40 26/2/43 23/3/42 21/4/37
f 25/1/25 27/2/44 26/3/45 24/4/46
f 25/1/25 24/2/46 20/3/47 13/4/26
f 27/1/44 31/2/48 28/3/49 26/4/45
f 26/1/43 28/2/50 29/3/51 23/4/42
f 28/1/50 30/2/52 40/3/53 29/4/51
f 31/1/48 32/2/54 30/3/55 28/4/49
f 27/12/44 187/13/15 186/14/56 164/15/57 168/16/58 185/17/59 184/18/60 34/19/61 33/20/62 32/21/54 31/22/48
f 32/1/54 33/2/62 35/3/63 30/4/55
f 33/1/62 34/2/61 36/3/64 35/4/63
f 35/1/65 36/2/66 38/3/67 37/4/68
f 30/1/52 35/2/65 37/3/68 40/4/53
f 38/1/67 177/2/69 39/3/70 37/4/68
f 37/1/68 39/2/70 41/3/71 40/4/53
f 40/1/53 41/2/71 42/3/72 29/4/51
f 43/1/73 46/2/74 42/3/72 41/4/71
f 45/1/75 43/2/73 41/3/71 39/4/70
f 44/1/76 47/2/77 46/3/78 43/4/79
f 182/1/80 44/2/76 43/3/79 45/4/81
f 48/1/82 46/2/78 47/3/77 49/4/83
f 51/1/84 42/2/72 46/3/74 48/4/85
f 49/1/83 135/2/86 50/3/87 48/4/82
f 51/1/84 48/2/85 50/3/88 52/4/89
f 51/12/84 52/23/89 53/24/41 23/25/42 29/26/51 42/27/72
f 53/28/41 52/29/89 50/30/88 54/31/90
f 56/32/91 69/33/92 22/34/38 53/28/41 54/31/90 55/35/93
f 55/36/93 54/37/90 50/37/88 57/38/94
f 57/30/94 59/39/95 56/32/91 55/35/93
f 58/40/96 60/41/97 59/42/98 57/38/99
f 58/40/96 57/38/99 50/37/100 135/43/101
f 60/41/97 62/44/102 61/45/103 59/42/98
f 59/39/95 61/46/104 64/47/105 56/32/91
f 62/44/102 117/48/106 63/49/107 61/45/103
f 61/46/104 63/50/108 65/51/109 64/47/105
f 64/47/105 65/51/109 119/52/110 93/53/111 92/54/112 90/55/113 89/56/114 88/57/115 67/58/116 66/59/117
f 69/33/92 56/32/91 64/47/105 66/59/117
f 85/60/118 68/61/119 66/59/117 67/58/116
f 68/61/119 70/62/120 69/33/92 66/59/117
f 70/62/120 19/63/35 22/34/38 69/33/92
f 71/64/121 17/65/29 19/66/33 70/67/122
f 72/68/123 71/64/121 70/67/122 68/69/124
f 73/70/125 71/64/121 72/68/123 74/71/126
f 71/64/121 73/70/125 15/72/30 17/65/29
f 76/73/127 75/74/128 73/70/125 74/71/126
f 75/74/128 4/75/31 15/72/30 73/70/125
f 77/76/129 3/5/5 75/11/10 76/77/130
f 79/78/131 77/76/129 76/77/130 78/79/132
f 78/80/133 76/73/127 74/71/126 81/81/134
f 106/78/135 79/78/131 78/79/132 80/82/136
f 80/83/137 78/80/133 81/81/134 82/84/138
f 84/85/139 82/84/138 81/81/134 83/86/140
f 72/68/123 83/86/140 81/81/134 74/71/126
f 85/87/141 86/88/142 84/85/139 83/86/140
f 83/86/140 72/68/123 68/69/124 85/87/141
f 67/58/116 88/57/115 86/89/143 85/60/118
f 86/88/142 87/90/144 101/91/145 84/85/139
f 88/57/115 89/56/114 87/92/146 86/89/143
f 89/56/114 90/55/113 91/93/147 87/92/146
f 94/94/148 91/93/147 90/55/113 92/54/112
f 92/54/112 93/53/111 95/95/149 94/94/148
f 94/96/150 95/97/151 97/98/152 96/99/153
f 96/100/153 99/101/154 91/102/155 94/103/150
f 98/104/156 96/99/153 97/98/152 113/105/157
f 100/106/158 99/101/154 96/100/153 98/107/156
f 87/90/144 91/102/155 99/101/154 101/91/145
f 99/101/154 100/106/158 102/108/159 101/91/145
f 101/91/145 102/108/159 82/84/138 84/85/139
f 103/109/160 80/83/137 82/84/138 102/108/159
f 104/110/161 103/109/160 102/108/159 100/106/158
f 107/111/162 105/112/163 103/113/164 104/114/165
f 105/112/163 106/78/135 80/82/136 103/113/164
f 77/76/129 79/78/131 106/78/135 105/112/163 107/111/162 108/115/166 109/116/167 190/117/168 122/118/169 125/119/170
f 108/115/166 107/111/162 104/114/165 110/120/171
f 109/116/167 108/115/166 110/120/171 111/121/172
f 110/122/173 104/110/161 100/106/158 98/107/156
f 111/123/174 110/124/173 98/104/156 113/105/157
f 190/117/168 109/116/167 111/121/172 112/125/175
f 112/126/176 111/123/174 113/105/157 114/127/177
f 113/105/157 97/98/152 116/128/178 114/127/177
f 121/129/179 112/126/176 114/127/177 115/130/180
f 114/127/177 116/128/178 117/48/106 115/130/180
f 118/131/181 63/49/107 117/48/106 116/128/178
f 95/97/151 118/131/181 116/128/178 97/98/152
f 119/52/110 65/51/109 63/50/108 118/132/182
f 93/53/111 119/52/110 118/132/182 95/95/149
f 120/133/183 115/130/180 117/48/106 62/44/102
f 123/134/184 121/129/179 115/130/180 120/133/183
f 122/118/169 190/117/168 112/125/175 121/135/185
f 125/119/170 122/118/169 121/135/185 123/136/186
f 123/136/186 124/137/187 126/6/6 125/119/170
f 120/133/183 133/138/188 124/139/189 123/134/184
f 126/6/6 3/5/5 77/76/129 125/119/170
f 127/7/7 126/6/6 124/137/187 129/140/190
f 127/7/7 129/140/190 130/141/191 128/8/8
f 131/142/192 132/143/193 130/144/194 129/145/195
f 129/145/195 124/139/189 133/138/188 131/142/192
f 131/142/192 58/40/96 135/43/101 132/143/193
f 60/41/97 58/40/96 131/142/192 133/138/188
f 60/41/97 133/138/188 120/133/183 62/44/102
f 134/1/196 136/2/197 130/3/198 132/4/199
f 132/1/199 135/2/86 49/3/83 134/4/196
f 138/1/200 136/2/197 134/3/196 137/4/201
f 134/1/196 49/2/83 47/3/77 137/4/201
f 137/1/201 139/2/202 141/3/203 138/4/200
f 137/12/201 47/146/77 44/147/76 182/24/80 181/148/204 180/149/205 144/26/206 142/150/207 139/151/202
f 139/1/202 142/2/207 143/3/208 140/4/209
f 139/1/202 140/2/209 156/3/210 141/4/203
f 142/1/207 145/2/211 148/3/212 143/4/208
f 142/1/207 144/2/206 146/3/213 145/4/211
f 145/1/214 146/2/215 175/3/216 147/4/217
f 147/1/217 149/2/218 148/3/219 145/4/214
f 151/1/220 143/2/221 148/3/219 149/4/218
f 149/1/218 150/2/222 152/3/223 151/4/220
f 147/1/217 172/2/224 150/3/222 149/4/218
f 154/1/225 153/2/226 151/3/220 152/4/223
f 140/1/227 143/2/221 151/3/220 153/4/226
f 153/1/226 155/2/228 156/3/229 140/4/227
f 153/1/226 154/2/225 157/3/230 155/4/228
f 158/1/231 141/2/232 156/3/229 155/4/228
f 155/1/228 157/2/230 160/3/233 158/4/231
f 138/1/234 141/2/232 158/3/231 159/4/235
f 161/1/236 159/2/235 158/3/231 160/4/233
f 162/1/237 163/2/238 161/3/236 160/4/233
f 160/1/233 157/2/230 165/3/239 162/4/237
f 164/1/57 186/2/56 163/3/240 162/4/241
f 164/1/57 162/2/241 165/3/242 166/4/243
f 154/1/225 166/2/244 165/3/239 157/4/230
f 168/1/58 164/2/57 166/3/243 167/4/245
f 167/1/246 166/2/244 154/3/225 152/4/223
f 168/1/58 167/2/245 169/3/247 170/4/248
f 152/1/223 150/2/222 169/3/249 167/4/246
f 172/1/224 170/2/250 169/3/249 150/4/222
f 185/1/59 168/2/58 170/3/248 171/4/251
f 171/1/252 170/2/250 172/3/224 173/4/253
f 172/1/224 147/2/217 175/3/216 173/4/253
f 183/1/254 171/2/252 173/3/253 174/4/255
f 175/1/216 176/2/256 174/3/255 173/4/253
f 176/1/256 175/2/216 146/3/215 178/4/257
f 177/1/69 176/2/256 178/3/257 179/4/258
f 176/1/256 177/2/69 38/3/67 174/4/255
f 179/1/259 178/2/260 180/3/205 181/4/204
f 178/1/260 146/2/213 144/3/206 180/4/205
f 181/1/204 182/2/80 45/3/81 179/4/259
f 179/1/258 45/2/75 39/3/70 177/4/69
f 36/1/66 183/2/254 174/3/255 38/4/67
f 184/1/60 185/2/59 171/3/251 183/4/261
f 34/1/61 184/2/60 183/3/261 36/4/64
f 186/1/56 187/2/15 9/3/18 163/4/240
f 187/1/15 27/2/44 25/3/25 10/4/16
f 163/1/238 9/2/14 7/3/3 161/4/236
f 7/12/3 2/23/2 189/24/262 188/25/263 159/26/235 161/27/236
f 159/1/235 188/2/263 136/3/264 138/4/234
f 188/1/263 189/2/262 130/3/191 136/4/264
f 2/1/2 128/2/8 130/3/191 189/4/262
