# Blender 5.0.1
# www.blender.org
mtllib torso.mtl
o head.003
v 0.000294 -1.147220 -0.468390
v 0.186842 -1.147220 -0.468390
v 0.000294 -0.912033 -0.546790
v -0.186255 -1.147220 -0.468390
v 0.000294 -1.279956 -0.386657
v -0.186255 -1.279956 -0.386657
v 0.000294 -1.377116 -0.251845
v 0.186842 -1.279956 -0.386657
v 0.186842 -1.377116 -0.251845
v 0.230812 -1.267308 -0.373058
v 0.230812 -1.360215 -0.244153
v 0.249025 -1.236770 -0.340225
v 0.230812 -1.139466 -0.451781
v 0.249025 -1.120737 -0.411673
v 0.230812 -0.917697 -0.525704
v 0.249025 -0.915222 -0.480180
v 0.249025 -0.863741 -0.541287
v 0.186842 -0.912033 -0.546790
v 0.217934 -0.852107 -0.560694
v 0.249025 -0.790857 -0.566452
v 0.000294 -0.852107 -0.560694
v 0.000294 -0.790857 -0.566452
v -0.217346 -0.852107 -0.560694
v -0.248438 -0.790857 -0.566452
v -0.248438 -0.863741 -0.541287
v -0.186255 -0.912033 -0.546790
v -0.230224 -0.917697 -0.525704
v -0.248438 -0.915222 -0.480180
v -0.230224 -1.139466 -0.451781
v -0.248438 -1.120737 -0.411673
v -0.230224 -1.267308 -0.373058
v -0.248438 -1.236770 -0.340225
v -0.230224 -1.360215 -0.244153
v -0.248438 -1.319411 -0.225566
v -0.230224 -1.393980 -0.100081
v -0.186255 -1.377116 -0.251845
v -0.186255 -1.412685 -0.100081
v -0.186255 -1.377116 0.051688
v 0.000294 -1.412685 -0.100081
v 0.000294 -1.377116 0.051688
v 0.186842 -1.412685 -0.100081
v 0.230812 -1.393980 -0.100081
v 0.186842 -1.377116 0.051688
v 0.186842 -1.279956 0.186494
v 0.230812 -1.360215 0.043990
v 0.230812 -1.267308 0.172895
v 0.249025 -1.319411 0.025403
v 0.249025 -1.236770 0.140062
v 0.249025 -1.348817 -0.100081
v 0.249025 -1.319411 -0.225566
v 0.249025 -1.120737 0.211510
v 0.230812 -1.139466 0.251618
v 0.249025 -0.915222 0.280017
v 0.267238 -0.871253 0.292062
v 0.230812 -0.917697 0.325541
v 0.186842 -0.912033 0.346627
v 0.249025 -0.863741 0.341124
v 0.217934 -0.852107 0.360531
v 0.280116 -0.834826 0.348076
v 0.249025 -0.790857 0.366290
v 0.311208 -0.853040 0.304107
v 0.774644 -0.834696 0.348076
v 0.768065 -0.790857 0.366290
v 0.809609 -0.826892 0.340011
v 0.777579 -0.853040 0.304107
v 0.819123 -0.835137 0.304107
v 0.777579 -0.853040 -0.504270
v 0.774644 -0.834696 -0.548239
v 0.819123 -0.835137 -0.504270
v 0.311208 -0.853040 -0.504270
v 0.267238 -0.871253 -0.492225
v 0.280116 -0.834826 -0.548239
v 0.830969 -0.791479 -0.504270
v 0.809609 -0.826892 -0.540168
v 0.812394 -0.791168 -0.548239
v 0.768065 -0.790857 -0.566452
v 0.705577 -0.042530 -0.548239
v 0.724189 -0.044035 -0.504270
v 0.705845 0.016991 -0.548357
v 0.661465 -0.044663 -0.566453
v 0.660800 0.020709 -0.566453
v 0.249025 -0.044663 -0.566453
v 0.249025 0.017519 -0.566453
v 0.000294 -0.044663 -0.566453
v 0.000294 0.017519 -0.566453
v -0.248438 -0.044663 -0.566453
v -0.660877 -0.044663 -0.566453
v -0.248438 0.017519 -0.566453
v -0.660212 0.020709 -0.566453
v -0.248438 0.079702 -0.566453
v -0.672710 0.079702 -0.566453
v 0.000294 0.079702 -0.566453
v -0.248438 0.266251 -0.566453
v -0.747330 0.266251 -0.566453
v -0.248438 0.328434 -0.566453
v 0.000294 0.266251 -0.566453
v 0.249025 0.266251 -0.566453
v 0.000294 0.328434 -0.566453
v 0.249025 0.328434 -0.566453
v 0.000294 0.390616 -0.566453
v 0.249025 0.390616 -0.566453
v -0.248438 0.390616 -0.566453
v 0.000294 1.074627 -0.566453
v 0.249025 1.074627 -0.566453
v 0.000294 1.118597 -0.548239
v -0.248438 1.074627 -0.566453
v -0.248438 1.118597 -0.548239
v -0.776991 1.074627 -0.566453
v -0.820961 1.074627 -0.548239
v -0.776991 1.118597 -0.548239
v -0.776991 0.390616 -0.566453
v -0.768311 0.333414 -0.566453
v -0.820961 0.390616 -0.548239
v -0.813288 0.329105 -0.548357
v -0.839174 0.390616 -0.504270
v -0.832409 0.329733 -0.504270
v -0.839174 1.074627 -0.504270
v -0.839174 0.390616 0.394943
v -0.832409 0.329739 0.386319
v -0.820961 0.391089 0.438925
v -0.839174 1.074627 0.368634
v -0.820961 1.074652 0.412628
v -0.820961 1.118590 0.366967
v -0.776991 1.136810 0.366289
v -0.812896 1.110538 0.403189
v -0.820961 1.118597 -0.504270
v -0.812896 1.110531 -0.540174
v -0.776991 1.136810 -0.504270
v -0.248438 1.136810 -0.504270
v 0.000294 1.136810 -0.504270
v -0.248438 1.136810 0.366289
v -0.248438 1.118609 0.410962
v 0.000294 1.136810 0.366289
v 0.249025 1.136810 0.366289
v 0.000294 1.118609 0.410962
v 0.249025 1.118609 0.410962
v 0.000294 1.074671 0.430860
v 0.249025 1.074671 0.430860
v -0.248438 1.074671 0.430860
v 0.000294 0.390573 0.457176
v 0.249025 0.390573 0.457176
v 0.000294 0.329186 0.453631
v -0.248438 0.390573 0.457176
v -0.248438 0.329186 0.453631
v -0.776991 0.390573 0.457176
v -0.762876 0.329186 0.453631
v -0.776991 1.074671 0.430860
v -0.776991 1.118621 0.410968
v -0.748760 0.268875 0.441698
v -0.812609 0.328564 0.434504
v -0.793165 0.262165 0.420774
v -0.816079 0.270697 0.377694
v -0.715716 0.068547 0.362689
v -0.672045 0.077078 0.384161
v -0.705811 0.015859 0.353132
v -0.737903 0.075256 0.319062
v -0.724148 0.016400 0.311581
v -0.737903 0.075256 -0.504270
v -0.717265 0.072694 -0.548239
v -0.724148 0.016400 -0.504270
v -0.816079 0.270697 -0.504270
v -0.793662 0.263689 -0.548239
v -0.723601 -0.044035 -0.504270
v -0.705257 0.016991 -0.548357
v -0.704990 -0.042530 -0.548239
v -0.811807 -0.791168 -0.548239
v -0.830382 -0.791479 -0.504270
v -0.809022 -0.826892 -0.540168
v -0.767477 -0.790857 -0.566452
v -0.774056 -0.834696 -0.548239
v -0.776991 -0.853040 -0.504270
v -0.279529 -0.834826 -0.548239
v -0.310620 -0.853040 -0.504270
v -0.266651 -0.871253 -0.492225
v -0.310620 -0.853040 0.304107
v -0.266651 -0.871253 0.292062
v -0.279529 -0.834826 0.348076
v -0.776991 -0.853040 0.304107
v -0.774056 -0.834696 0.348076
v -0.818536 -0.835137 0.304107
v -0.830382 -0.791479 0.304107
v -0.809022 -0.826892 0.340011
v -0.818536 -0.835137 -0.504270
v -0.811807 -0.791168 0.348076
v -0.767477 -0.790857 0.366290
v -0.704990 -0.042530 0.348076
v -0.723601 -0.044035 0.304107
v -0.660877 -0.044663 0.366290
v -0.666461 0.016755 0.371525
v -0.248438 -0.044663 0.366290
v -0.248438 0.016755 0.371525
v 0.000294 -0.044663 0.366290
v -0.248438 -0.790857 0.366290
v -0.217346 -0.852107 0.360531
v 0.000294 -0.790857 0.366290
v 0.000294 -0.852107 0.360531
v 0.000294 -0.912033 0.346627
v -0.186255 -0.912033 0.346627
v 0.000294 -1.147220 0.268227
v 0.186842 -1.147220 0.268227
v -0.186255 -1.147220 0.268227
v 0.000294 -1.279956 0.186494
v -0.186255 -1.279956 0.186494
v -0.230224 -1.267308 0.172895
v -0.230224 -1.360215 0.043990
v -0.248438 -1.236770 0.140062
v -0.230224 -1.139466 0.251618
v -0.248438 -1.120737 0.211510
v -0.230224 -0.917697 0.325541
v -0.248438 -0.915222 0.280017
v -0.248438 -0.863741 0.341124
v -0.248438 -1.319411 0.025403
v -0.248438 -1.348817 -0.100081
v 0.249025 -0.044663 0.366290
v 0.000294 0.016755 0.371525
v 0.249025 0.016755 0.371525
v 0.000294 0.077078 0.384161
v 0.249025 0.077078 0.384161
v -0.248438 0.077078 0.384161
v 0.000294 0.268875 0.441698
v 0.249025 0.268875 0.441698
v -0.248438 0.268875 0.441698
v 0.249025 0.329186 0.453631
v 0.749347 0.268875 0.441698
v 0.793746 0.262165 0.420774
v 0.763463 0.329186 0.453631
v 0.672627 0.077078 0.384161
v 0.667049 0.016755 0.371525
v 0.716304 0.068547 0.362689
v 0.738491 0.075256 0.319062
v 0.706398 0.015859 0.353132
v 0.724736 0.016400 0.311581
v 0.705577 -0.042530 0.348076
v 0.724189 -0.044035 0.304107
v 0.661465 -0.044663 0.366290
v 0.812394 -0.791168 0.348076
v 0.830969 -0.791479 0.304107
v 0.724736 0.016400 -0.504270
v 0.738491 0.075256 -0.504270
v 0.717852 0.072694 -0.548239
v 0.816666 0.270697 -0.504270
v 0.794249 0.263689 -0.548239
v 0.832996 0.329733 -0.504270
v 0.816666 0.270697 0.377694
v 0.832996 0.329739 0.386319
v 0.813197 0.328564 0.434504
v 0.839762 0.390616 0.394943
v 0.821548 0.391089 0.438925
v 0.839762 0.390616 -0.504270
v 0.839762 1.074627 0.368634
v 0.821548 1.118590 0.366967
v 0.821548 1.074652 0.412628
v 0.839762 1.074627 -0.504270
v 0.821548 1.074627 -0.548239
v 0.821548 1.118597 -0.504270
v 0.777579 1.136810 -0.504270
v 0.813477 1.110531 -0.540174
v 0.777579 1.118597 -0.548239
v 0.777579 1.074627 -0.566453
v 0.249025 1.118597 -0.548239
v 0.249025 1.136810 -0.504270
v 0.777579 0.390616 -0.566453
v 0.821548 0.390616 -0.548239
v 0.768898 0.333414 -0.566453
v 0.813875 0.329105 -0.548357
v 0.747918 0.266251 -0.566453
v 0.673298 0.079702 -0.566453
v 0.249025 0.079702 -0.566453
v 0.777579 1.136810 0.366289
v 0.777579 1.118621 0.410968
v 0.813477 1.110538 0.403189
v 0.777579 1.074671 0.430860
v 0.777579 0.390573 0.457176
vn 0.1938 -0.6681 -0.7184
vn -0.0000 -0.6810 -0.7323
vn -0.0000 -0.4231 -0.9061
vn 0.1935 -0.4151 -0.8890
vn -0.0000 -0.2714 -0.9625
vn 0.1635 -0.3017 -0.9393
vn -0.1635 -0.3017 -0.9393
vn -0.1935 -0.4151 -0.8890
vn -0.1938 -0.6681 -0.7184
vn -0.0000 -0.9101 -0.4145
vn -0.1938 -0.8928 -0.4066
vn 0.1938 -0.8928 -0.4066
vn 0.3891 -0.6273 -0.6746
vn 0.3891 -0.8384 -0.3818
vn 0.3848 -0.3905 -0.8363
vn 0.9767 -0.1462 -0.1572
vn 0.9767 -0.1954 -0.0890
vn 0.9265 -0.3425 -0.1560
vn 0.9265 -0.2563 -0.2756
vn 0.9782 -0.0878 -0.1880
vn 0.9248 -0.1610 -0.3448
vn 0.9495 -0.2486 -0.1915
vn 0.8890 -0.2856 -0.3579
vn 0.3770 -0.3339 -0.8639
vn 0.8430 -0.4114 -0.3466
vn 0.8912 -0.4056 -0.2029
vn 0.1625 -0.2484 -0.9549
vn 0.3185 -0.3465 -0.8823
vn -0.0000 -0.1602 -0.9871
vn 0.0471 -0.1328 -0.9900
vn 0.1222 -0.3557 -0.9266
vn -0.0000 -0.0469 -0.9989
vn -0.1625 -0.2484 -0.9549
vn -0.0471 -0.1328 -0.9900
vn -0.3185 -0.3465 -0.8823
vn -0.1222 -0.3557 -0.9266
vn -0.3770 -0.3339 -0.8639
vn -0.3848 -0.3905 -0.8363
vn -0.9495 -0.2486 -0.1915
vn -0.8912 -0.4056 -0.2029
vn -0.8430 -0.4114 -0.3466
vn -0.8890 -0.2856 -0.3579
vn -0.9248 -0.1610 -0.3448
vn -0.9782 -0.0878 -0.1880
vn -0.9767 -0.1462 -0.1572
vn -0.9265 -0.2563 -0.2756
vn -0.3891 -0.6273 -0.6746
vn -0.9767 -0.1954 -0.0890
vn -0.9265 -0.3425 -0.1560
vn -0.3891 -0.8384 -0.3818
vn -0.9761 -0.2171 -0.0000
vn -0.9274 -0.3740 -0.0000
vn -0.3915 -0.9202 -0.0000
vn -0.1943 -0.9809 -0.0000
vn -0.0000 -1.0000 -0.0000
vn -0.3891 -0.8383 0.3818
vn -0.3389 -0.8562 0.3899
vn -0.2079 -0.8902 0.4054
vn 0.1943 -0.9809 -0.0000
vn 0.3389 -0.8562 0.3900
vn 0.3915 -0.9202 -0.0000
vn 0.3891 -0.8384 0.3818
vn 0.4091 -0.6214 0.6682
vn -0.0000 -0.6810 0.7323
vn 0.3891 -0.6273 0.6746
vn 0.9767 -0.1954 0.0890
vn 0.9767 -0.1462 0.1572
vn 0.9265 -0.2563 0.2756
vn 0.9265 -0.3425 0.1560
vn 0.9762 -0.2171 -0.0000
vn 0.9274 -0.3740 -0.0000
vn 0.9714 -0.0662 0.2282
vn 0.9493 -0.1329 0.2847
vn 0.9090 -0.1959 0.3679
vn 0.8890 -0.2856 0.3579
vn 0.7882 -0.5294 0.3139
vn 0.8430 -0.4114 0.3466
vn 0.2974 -0.3475 0.8893
vn 0.3770 -0.3339 0.8639
vn 0.1635 -0.3017 0.9393
vn 0.3180 -0.4206 0.8497
vn 0.3185 -0.3465 0.8823
vn 0.1625 -0.2484 0.9549
vn 0.0471 -0.1328 0.9900
vn 0.1222 -0.3557 0.9266
vn 0.0517 -0.9089 0.4137
vn 0.2522 -0.8699 0.4239
vn 0.3976 -0.8083 0.4342
vn 0.2729 -0.9613 0.0368
vn 0.1804 -0.1565 0.9711
vn 0.1739 -0.3351 0.9260
vn 0.1547 -0.9157 0.3709
vn 0.3928 -0.9002 0.1881
vn 0.3257 -0.2825 0.9023
vn 0.3563 -0.1247 0.9260
vn 0.5245 -0.8467 0.0897
vn 0.3314 -0.8785 0.3441
vn 0.3709 -0.9136 -0.1664
vn 0.1879 -0.9648 -0.1839
vn 0.1718 -0.9575 -0.2318
vn 0.2522 -0.8699 -0.4239
vn 0.1547 -0.9157 -0.3709
vn 0.3315 -0.8785 -0.3441
vn 0.3999 -0.8926 -0.2085
vn 0.3976 -0.8083 -0.4342
vn 0.1805 -0.1565 -0.9711
vn 0.1739 -0.3351 -0.9260
vn 0.9468 -0.2611 -0.1880
vn 0.9817 -0.0496 0.1839
vn 0.9569 -0.2380 0.1664
vn 0.8846 -0.3805 -0.2695
vn 0.9165 -0.2039 -0.3442
vn 0.9284 -0.0237 -0.3709
vn 0.3564 -0.1248 -0.9260
vn 0.3258 -0.2825 -0.9022
vn 0.9147 0.0747 -0.3971
vn 0.9193 0.0595 -0.3890
vn 0.3784 0.0276 -0.9252
vn 0.1850 0.0131 -0.9826
vn 0.9123 -0.1024 -0.3965
vn 0.9271 -0.3194 -0.1963
vn 0.1768 -0.0181 -0.9841
vn 0.3720 -0.0391 -0.9274
vn -0.0000 -0.0000 -1.0000
vn -0.1850 0.0131 -0.9826
vn -0.1805 -0.1565 -0.9711
vn -0.1768 -0.0181 -0.9841
vn -0.1745 -0.0516 -0.9833
vn -0.1864 -0.0674 -0.9802
vn -0.1958 -0.0444 -0.9796
vn -0.0000 0.1951 -0.9808
vn -0.0000 0.3827 -0.9239
vn -0.1585 0.3599 -0.9194
vn -0.1794 0.1794 -0.9673
vn -0.2020 -0.0141 -0.9793
vn -0.3793 -0.0244 -0.9250
vn -0.3599 0.1585 -0.9194
vn -0.3250 0.3250 -0.8881
vn -0.3684 -0.0789 -0.9263
vn -0.9792 -0.0553 -0.1953
vn -0.9210 -0.0547 -0.3857
vn -0.9008 -0.1864 -0.3922
vn -0.9621 -0.1873 -0.1980
vn -0.9194 0.1585 -0.3599
vn -0.9673 0.1794 -0.1794
vn -0.8964 -0.4136 0.1594
vn -0.9468 -0.2720 0.1720
vn -0.9291 0.1890 0.3178
vn -0.8966 -0.2332 0.3766
vn -0.9222 -0.0688 0.3805
vn -0.8354 0.2679 0.4799
vn -0.8846 0.3361 0.3234
vn -0.9179 0.3658 0.1540
vn -0.9194 0.3600 -0.1585
vn -0.3214 0.9294 0.1817
vn -0.1794 0.9673 -0.1794
vn -0.3600 0.9194 -0.1585
vn -0.3580 0.9202 0.1580
vn -0.3219 0.8907 0.3210
vn -0.2507 0.8404 0.4805
vn -0.8881 0.3250 -0.3250
vn -0.1585 0.9194 -0.3599
vn -0.3250 0.8881 -0.3250
vn -0.0000 0.9808 -0.1951
vn -0.0000 0.9239 -0.3827
vn -0.1000 0.9764 0.1913
vn -0.0000 0.9813 0.1922
vn -0.0000 0.9261 0.3773
vn -0.0000 0.9956 0.0932
vn -0.0000 0.2298 0.9732
vn -0.0000 0.2297 0.9733
vn -0.0000 0.4125 0.9110
vn -0.0000 0.4125 0.9109
vn -0.0000 -0.0096 1.0000
vn -0.0000 -0.1262 0.9920
vn -0.1836 -0.1653 0.9690
vn -0.2035 -0.0303 0.9786
vn -0.1787 0.2132 0.9605
vn -0.3580 0.1933 0.9135
vn -0.3767 -0.0418 0.9254
vn -0.3642 -0.1948 0.9107
vn -0.1572 0.3901 0.9073
vn -0.3218 0.3550 0.8777
vn -0.1854 -0.2913 0.9385
vn -0.0000 -0.2410 0.9705
vn -0.3514 -0.3326 0.8752
vn -0.8368 -0.3932 0.3809
vn -0.8499 -0.3810 0.3641
vn -0.8423 -0.5168 0.1530
vn -0.8603 -0.3412 0.3788
vn -0.3732 -0.3114 0.8739
vn -0.1742 -0.2868 0.9420
vn -0.4014 -0.1653 0.9009
vn -0.2067 -0.1602 0.9652
vn -0.9225 -0.3458 0.1716
vn -0.9034 -0.1553 0.3997
vn -0.9719 -0.1150 -0.2054
vn -0.9337 -0.2964 -0.2010
vn -0.9293 -0.3119 -0.1976
vn -0.8690 -0.3074 -0.3878
vn -0.8811 -0.2646 -0.3919
vn -0.9123 -0.1024 -0.3966
vn -0.3606 -0.1124 -0.9259
vn -0.3581 -0.1240 -0.9254
vn -0.9775 0.0668 -0.2001
vn -0.9179 0.0639 0.3916
vn -0.9193 0.0595 -0.3890
vn -0.3784 0.0276 -0.9252
vn -0.3720 -0.0391 -0.9274
vn -0.9284 -0.0237 -0.3709
vn -0.9817 -0.0496 -0.1839
vn -0.3564 -0.1248 -0.9260
vn -0.9165 -0.2039 -0.3442
vn -0.9569 -0.2380 -0.1664
vn -0.1739 -0.3351 -0.9260
vn -0.3258 -0.2825 -0.9022
vn -0.1879 -0.9648 -0.1839
vn -0.3709 -0.9136 -0.1664
vn -0.3315 -0.8785 -0.3441
vn -0.1547 -0.9157 -0.3709
vn -0.1718 -0.9575 -0.2318
vn -0.2522 -0.8699 -0.4239
vn -0.3976 -0.8083 -0.4342
vn -0.3999 -0.8926 -0.2085
vn -0.0297 -0.9469 0.3201
vn -0.4835 -0.7852 0.3869
vn -0.1879 -0.9648 0.1839
vn -0.3976 -0.8083 0.4342
vn -0.2763 -0.7761 0.5669
vn -0.1547 -0.9157 0.3709
vn -0.3314 -0.8785 0.3441
vn -0.3709 -0.9136 0.1664
vn -0.9123 -0.3995 0.0897
vn -0.9467 -0.2616 0.1880
vn -0.9165 -0.2039 0.3441
vn -0.9284 -0.0237 0.3708
vn -0.1804 -0.1565 0.9711
vn -0.3563 -0.1247 0.9260
vn -0.3257 -0.2825 0.9023
vn -0.1739 -0.3351 0.9260
vn -0.9192 0.0337 0.3922
vn -0.3911 -0.0214 0.9201
vn -0.1864 -0.0335 0.9819
vn -0.0000 -0.0425 0.9991
vn -0.0000 -0.1452 0.9894
vn -0.0471 -0.1328 0.9900
vn -0.0000 -0.0469 0.9989
vn -0.1222 -0.3557 0.9266
vn -0.3185 -0.3465 0.8823
vn -0.1625 -0.2484 0.9549
vn -0.0000 -0.1602 0.9871
vn -0.0000 -0.2714 0.9625
vn -0.1635 -0.3017 0.9393
vn -0.0000 -0.4231 0.9061
vn -0.1679 -0.5296 0.8315
vn -0.4091 -0.6214 0.6682
vn -0.3891 -0.6273 0.6746
vn -0.4693 -0.4257 0.7737
vn -0.9767 -0.1462 0.1572
vn -0.9767 -0.1954 0.0890
vn -0.9265 -0.3425 0.1560
vn -0.9265 -0.2563 0.2756
vn -0.9748 -0.1815 0.1295
vn -0.9090 -0.1959 0.3679
vn -0.8890 -0.2856 0.3579
vn -0.8918 -0.2614 0.3693
vn -0.3770 -0.3339 0.8639
vn -0.8430 -0.4114 0.3466
vn -0.9601 -0.2669 0.0833
vn -0.0000 -0.2464 0.9692
vn 0.1837 -0.1653 0.9690
vn 0.1854 -0.2913 0.9385
vn 0.1742 -0.2868 0.9420
vn 0.3732 -0.3114 0.8740
vn 0.3514 -0.3326 0.8752
vn 0.3642 -0.1948 0.9107
vn 0.2067 -0.1602 0.9652
vn 0.4014 -0.1652 0.9009
vn 0.8498 -0.3810 0.3641
vn 0.8603 -0.3412 0.3789
vn 0.9239 -0.3349 0.1850
vn 0.9169 -0.3497 0.1925
vn 0.9034 -0.1553 0.3997
vn 0.9681 -0.1408 0.2071
vn 0.9794 0.0562 0.1940
vn 0.9192 0.0337 0.3922
vn 0.1864 -0.0335 0.9819
vn 0.3911 -0.0214 0.9201
vn 0.9284 -0.0237 0.3708
vn 0.9165 -0.2039 0.3441
vn 0.8516 -0.4871 -0.1935
vn 0.8811 -0.2646 -0.3919
vn 0.8498 -0.3491 -0.3949
vn 0.8690 -0.3074 -0.3878
vn 0.9008 -0.1864 -0.3922
vn 0.8932 -0.1940 -0.4056
vn 0.9584 -0.2131 0.1901
vn 0.8966 -0.2332 0.3766
vn 0.9771 -0.0636 0.2031
vn 0.9222 -0.0688 0.3805
vn 0.9445 -0.2659 -0.1931
vn 0.9664 0.1853 0.1783
vn 0.9178 0.1680 0.3596
vn 0.9072 0.1832 -0.3786
vn 0.8364 0.4861 -0.2534
vn 0.9178 0.3658 0.1540
vn 0.8845 0.3362 0.3235
vn 0.9210 -0.0547 -0.3857
vn 0.9194 0.1585 -0.3600
vn 0.8881 0.3251 -0.3251
vn 0.3581 0.9202 0.1580
vn 0.4861 0.8363 -0.2534
vn 0.3235 0.9284 -0.1829
vn 0.3293 0.9298 0.1641
vn 0.3250 0.8881 -0.3250
vn 0.1585 0.9194 -0.3600
vn 0.1794 0.1794 -0.9673
vn 0.1585 0.3600 -0.9194
vn 0.3250 0.3250 -0.8881
vn 0.3600 0.1585 -0.9194
vn 0.3793 -0.0244 -0.9250
vn 0.2020 -0.0141 -0.9793
vn 0.3684 -0.0789 -0.9263
vn 0.1958 -0.0444 -0.9796
vn 0.1864 -0.0674 -0.9802
vn 0.3581 -0.1240 -0.9254
vn 0.3607 -0.1124 -0.9259
vn 0.1745 -0.0516 -0.9833
vn 0.1572 0.9216 0.3549
vn 0.3219 0.8907 0.3210
vn 0.1787 0.2132 0.9605
vn 0.3581 0.1933 0.9135
vn 0.3219 0.3550 0.8777
vn 0.1572 0.3901 0.9073
vn 0.3767 -0.0418 0.9254
vn 0.2035 -0.0303 0.9786
vt 0.448294 0.568368
vt 0.473555 0.568368
vt 0.473555 0.590197
vt 0.448294 0.590197
vt 0.473555 0.625227
vt 0.448294 0.625227
vt 0.498816 0.625227
vt 0.498816 0.590197
vt 0.498816 0.568368
vt 0.473555 0.548270
vt 0.498816 0.548270
vt 0.448294 0.548270
vt 0.442340 0.569273
vt 0.442340 0.550055
vt 0.442340 0.590298
vt 0.586715 0.611866
vt 0.579615 0.606845
vt 0.580727 0.603984
vt 0.588710 0.609630
vt 0.591181 0.618980
vt 0.593630 0.617467
vt 0.595523 0.631619
vt 0.598316 0.631106
vt 0.442340 0.623329
vt 0.599312 0.634755
vt 0.596295 0.634654
vt 0.444083 0.633819
vt 0.439873 0.631233
vt 0.473555 0.633819
vt 0.862069 0.644271
vt 0.864242 0.638726
vt 0.862069 0.638726
vt 0.858682 0.638726
vt 0.840770 0.638726
vt 0.840770 0.644271
vt 0.503026 0.633819
vt 0.818013 0.644271
vt 0.820235 0.638726
vt 0.818013 0.638726
vt 0.814471 0.638726
vt 0.504770 0.623329
vt 0.507236 0.631233
vt 0.504770 0.590298
vt 0.407735 0.631703
vt 0.406977 0.634799
vt 0.403908 0.634932
vt 0.404888 0.631208
vt 0.409532 0.617280
vt 0.412039 0.618795
vt 0.416519 0.611511
vt 0.414468 0.609254
vt 0.504770 0.569273
vt 0.423699 0.606329
vt 0.422540 0.603428
vt 0.504770 0.550055
vt 0.431552 0.604493
vt 0.431556 0.601320
vt 0.504770 0.537729
vt 0.498816 0.535286
vt 0.473555 0.535286
vt 0.572133 0.619050
vt 0.572133 0.631376
vt 0.566179 0.633819
vt 0.566179 0.620835
vt 0.540918 0.633819
vt 0.540918 0.620835
vt 0.448294 0.535286
vt 0.515657 0.620835
vt 0.515657 0.633819
vt 0.509703 0.631376
vt 0.509703 0.619050
vt 0.442340 0.537729
vt 0.515657 0.600736
vt 0.540918 0.600736
vt 0.509703 0.599831
vt 0.564190 0.607021
vt 0.557196 0.612203
vt 0.555155 0.610013
vt 0.563018 0.604186
vt 0.571883 0.605117
vt 0.571851 0.602001
vt 0.548802 0.632153
vt 0.552880 0.619417
vt 0.550399 0.617960
vt 0.545999 0.631703
vt 0.548093 0.635204
vt 0.545079 0.635374
vt 0.509703 0.578807
vt 0.509703 0.545776
vt 0.515657 0.543877
vt 0.515657 0.578907
vt 0.507236 0.537872
vt 0.511447 0.535286
vt 0.530303 0.642234
vt 0.527398 0.638643
vt 0.530570 0.638661
vt 0.533662 0.638676
vt 0.394276 0.519142
vt 0.615833 0.519142
vt 0.615833 0.634903
vt 0.394276 0.634903
vt 0.608400 0.644261
vt 0.608400 0.638673
vt 0.613678 0.638702
vt 0.613707 0.644639
vt 0.939255 0.644271
vt 0.939255 0.638726
vt 0.712875 0.646125
vt 0.632367 0.646125
vt 0.632367 0.638732
vt 0.712875 0.638973
vt 0.726406 0.638837
vt 0.726406 0.646125
vt 0.948738 0.644271
vt 0.948738 0.638726
vt 0.712875 0.760233
vt 0.726406 0.760233
vt 0.948738 0.760274
vt 0.939255 0.760274
vt 0.726406 0.765654
vt 0.712875 0.765654
vt 0.939255 0.765732
vt 0.948738 0.765732
vt 0.862069 0.765732
vt 0.862069 0.760274
vt 0.840770 0.760274
vt 0.840770 0.765732
vt 0.818013 0.765732
vt 0.818013 0.760274
vt 0.739414 0.760274
vt 0.739414 0.644271
vt 0.739414 0.765732
vt 0.739414 0.771071
vt 0.818013 0.771071
vt 0.840770 0.771071
vt 0.739414 0.800858
vt 0.818013 0.800858
vt 0.840770 0.800858
vt 0.739414 0.806473
vt 0.818013 0.806473
vt 0.840770 0.806473
vt 0.862069 0.771071
vt 0.862069 0.800858
vt 0.862069 0.806473
vt 0.840770 0.812430
vt 0.862069 0.812430
vt 0.818013 0.812430
vt 0.840770 0.861970
vt 0.862069 0.861994
vt 0.818013 0.862001
vt 0.840770 0.867611
vt 0.862069 0.867611
vt 0.818013 0.867611
vt 0.739414 0.867611
vt 0.739414 0.862155
vt 0.739414 0.812430
vt 0.729985 0.812430
vt 0.729985 0.862176
vt 0.729985 0.867611
vt 0.729985 0.806473
vt 0.294108 0.812233
vt 0.282027 0.812233
vt 0.282027 0.806101
vt 0.294108 0.806653
vt 0.282027 0.862082
vt 0.294108 0.862099
vt 0.376504 0.806653
vt 0.376504 0.812233
vt 0.376504 0.862160
vt 0.391467 0.806653
vt 0.391467 0.812233
vt 0.391467 0.862241
vt 0.391467 0.867660
vt 0.376504 0.867660
vt 0.294108 0.867660
vt 0.399158 0.875909
vt 0.399158 0.980512
vt 0.394879 0.980512
vt 0.394879 0.875909
vt 0.394879 0.871256
vt 0.399158 0.871256
vt 0.282027 0.867660
vt 0.399158 0.985872
vt 0.394879 0.985872
vt 0.466572 0.980512
vt 0.466572 0.985872
vt 0.466572 0.875909
vt 0.499371 0.985872
vt 0.499371 0.980512
vt 0.499371 0.875909
vt 0.466572 0.871256
vt 0.499371 0.871256
vt 0.528855 0.980512
vt 0.528855 0.875909
vt 0.528855 0.871256
vt 0.499396 0.861797
vt 0.528860 0.861800
vt 0.528812 0.867342
vt 0.499397 0.867351
vt 0.466634 0.867340
vt 0.466689 0.861797
vt 0.499380 0.812207
vt 0.529384 0.812207
vt 0.467305 0.812207
vt 0.499379 0.806598
vt 0.529431 0.806598
vt 0.467361 0.806598
vt 0.399109 0.806598
vt 0.399109 0.812207
vt 0.399109 0.861814
vt 0.394872 0.861767
vt 0.394887 0.812207
vt 0.395066 0.806598
vt 0.399109 0.867350
vt 0.394891 0.867661
vt 0.399109 0.800615
vt 0.467417 0.800615
vt 0.394965 0.800615
vt 0.376504 0.800588
vt 0.391467 0.800588
vt 0.376504 0.770840
vt 0.391467 0.770840
vt 0.394964 0.770232
vt 0.399109 0.770232
vt 0.394986 0.765726
vt 0.399109 0.765726
vt 0.376504 0.765713
vt 0.391467 0.765713
vt 0.294108 0.765713
vt 0.294108 0.770840
vt 0.294108 0.800588
vt 0.282027 0.800588
vt 0.282027 0.770840
vt 0.282027 0.765713
vt 0.729985 0.771071
vt 0.729985 0.800858
vt 0.294108 0.760295
vt 0.376504 0.760295
vt 0.282027 0.760295
vt 0.729985 0.760274
vt 0.729985 0.765732
vt 0.282027 0.645860
vt 0.294108 0.645860
vt 0.729985 0.644271
vt 0.282027 0.638644
vt 0.294108 0.638644
vt 0.739414 0.638726
vt 0.729985 0.638726
vt 0.376504 0.638644
vt 0.376504 0.645860
vt 0.391467 0.638707
vt 0.391467 0.645860
vt 0.399109 0.644096
vt 0.394932 0.644537
vt 0.394927 0.638581
vt 0.399109 0.638610
vt 0.391467 0.760295
vt 0.395013 0.760474
vt 0.399109 0.760474
vt 0.467711 0.760474
vt 0.467656 0.765726
vt 0.468387 0.642003
vt 0.499370 0.765726
vt 0.499373 0.760474
vt 0.499404 0.642295
vt 0.465512 0.638727
vt 0.468444 0.638597
vt 0.471066 0.638606
vt 0.499407 0.638581
vt 0.529729 0.760474
vt 0.540918 0.535286
vt 0.540918 0.543877
vt 0.566179 0.543877
vt 0.570390 0.535286
vt 0.540918 0.578907
vt 0.566179 0.578907
vt 0.566179 0.600736
vt 0.572133 0.599831
vt 0.572133 0.578807
vt 0.446565 0.611557
vt 0.439399 0.606353
vt 0.440566 0.603456
vt 0.448622 0.609307
vt 0.451024 0.618856
vt 0.453535 0.617348
vt 0.458140 0.631291
vt 0.455291 0.631777
vt 0.572133 0.545776
vt 0.459109 0.635018
vt 0.456040 0.634875
vt 0.574600 0.537872
vt 0.529681 0.765726
vt 0.529633 0.770232
vt 0.499372 0.770232
vt 0.467598 0.770232
vt 0.529479 0.800615
vt 0.499377 0.800615
vt 0.608400 0.806598
vt 0.608400 0.800615
vt 0.608400 0.770232
vt 0.613691 0.770232
vt 0.613596 0.800615
vt 0.613618 0.806598
vt 0.608400 0.765726
vt 0.613718 0.765726
vt 0.617110 0.800527
vt 0.617110 0.770779
vt 0.632367 0.770779
vt 0.632367 0.800527
vt 0.617110 0.765654
vt 0.632367 0.765654
vt 0.632367 0.760233
vt 0.617110 0.760233
vt 0.608400 0.760474
vt 0.613703 0.760474
vt 0.617110 0.646125
vt 0.617110 0.638666
vt 0.712875 0.770779
vt 0.726406 0.770779
vt 0.712875 0.800527
vt 0.726406 0.800527
vt 0.726406 0.806548
vt 0.712875 0.806548
vt 0.632367 0.806548
vt 0.617110 0.806548
vt 0.632367 0.812171
vt 0.617110 0.812171
vt 0.712875 0.812171
vt 0.632367 0.862098
vt 0.617110 0.862179
vt 0.712875 0.862037
vt 0.712875 0.867608
vt 0.632367 0.867608
vt 0.617110 0.867608
vt 0.726406 0.812171
vt 0.726406 0.862020
vt 0.726406 0.867643
vt 0.613707 0.875909
vt 0.613707 0.980512
vt 0.608432 0.980512
vt 0.608432 0.875909
vt 0.613707 0.985872
vt 0.608432 0.985872
vt 0.939255 0.862153
vt 0.939255 0.867611
vt 0.948738 0.867611
vt 0.948738 0.862173
vt 0.528855 0.985872
vt 0.948738 0.812430
vt 0.939254 0.812430
vt 0.948738 0.806473
vt 0.939254 0.806473
vt 0.939254 0.800858
vt 0.948738 0.800858
vt 0.948738 0.771071
vt 0.939255 0.771071
vt 0.608432 0.871256
vt 0.613707 0.871256
vt 0.608400 0.861802
vt 0.613721 0.861900
vt 0.613678 0.867640
vt 0.608400 0.867335
vt 0.613705 0.812207
vt 0.608400 0.812207
s 1
usemtl Material.003
f 8/1/1 5/2/2 1/3/3 2/4/4
f 3/5/5 18/6/6 2/4/4 1/3/3
f 26/7/7 3/5/5 1/3/3 4/8/8
f 4/8/8 1/3/3 5/2/2 6/9/9
f 6/9/9 5/2/2 7/10/10 36/11/11
f 9/12/12 7/10/10 5/2/2 8/1/1
f 10/13/13 11/14/14 9/12/12 8/1/1
f 13/15/15 10/13/13 8/1/1 2/4/4
f 12/16/16 50/17/17 11/18/18 10/19/19
f 14/20/20 12/16/16 10/19/19 13/21/21
f 16/22/22 14/20/20 13/21/21 15/23/23
f 15/24/24 13/15/15 2/4/4 18/6/6
f 16/22/22 15/23/23 17/25/25 71/26/26
f 18/6/6 19/27/27 17/28/28 15/24/24
f 18/6/6 3/5/5 21/29/29 19/27/27
f 20/30/30 72/31/31 17/32/28 19/33/27
f 19/33/27 21/34/29 22/35/32 20/30/30
f 23/36/33 21/29/29 3/5/5 26/7/7
f 24/37/34 22/35/32 21/34/29 23/38/33
f 24/37/34 23/38/33 25/39/35 172/40/36
f 26/7/7 27/41/37 25/42/35 23/36/33
f 26/7/7 4/8/8 29/43/38 27/41/37
f 28/44/39 174/45/40 25/46/41 27/47/42
f 27/47/42 29/48/43 30/49/44 28/44/39
f 32/50/45 30/49/44 29/48/43 31/51/46
f 31/52/47 29/43/38 4/8/8 6/9/9
f 34/53/48 32/50/45 31/51/46 33/54/49
f 33/55/50 31/52/47 6/9/9 36/11/11
f 213/56/51 34/53/48 33/54/49 35/57/52
f 35/58/53 33/55/50 36/11/11 37/59/54
f 36/11/11 7/10/10 39/60/55 37/59/54
f 205/61/56 35/62/53 37/63/54 38/64/57
f 37/63/54 39/65/55 40/66/58 38/64/57
f 41/67/59 39/60/55 7/10/10 9/12/12
f 43/68/60 40/66/58 39/65/55 41/69/59
f 42/70/61 45/71/62 43/68/60 41/69/59
f 11/14/14 42/72/61 41/67/59 9/12/12
f 44/73/63 202/74/64 40/66/58 43/68/60
f 45/71/62 46/75/65 44/73/63 43/68/60
f 47/76/66 48/77/67 46/78/68 45/79/69
f 49/80/70 47/76/66 45/79/69 42/81/71
f 16/22/22 53/82/72 51/83/73 48/77/67 47/76/66 49/80/70 50/17/17 12/16/16 14/20/20
f 50/17/17 49/80/70 42/81/71 11/18/18
f 48/77/67 51/83/73 52/84/74 46/78/68
f 51/83/73 53/82/72 55/85/75 52/84/74
f 53/82/72 16/22/22 71/26/26 54/86/76
f 53/82/72 54/86/76 57/87/77 55/85/75
f 52/88/78 55/89/79 56/90/80 200/91/81
f 56/90/80 55/89/79 57/92/82 58/93/83
f 60/94/84 58/95/83 57/96/82 59/97/85
f 61/98/86 59/99/87 57/100/88 54/101/89
f 63/102/90 60/94/84 59/97/85 62/103/91
f 62/98/92 59/99/87 61/100/86 65/101/93
f 63/102/90 62/103/91 64/104/94 236/105/95
f 65/98/93 66/99/96 64/100/97 62/101/92
f 69/98/98 66/99/96 65/100/93 67/101/99
f 61/98/86 70/99/100 67/100/99 65/101/93
f 72/98/101 68/99/102 67/100/99 70/101/100
f 67/98/99 68/99/102 74/100/103 69/101/98
f 54/98/89 71/99/104 70/100/100 61/101/86
f 70/98/100 71/99/104 17/100/105 72/101/101
f 20/30/30 76/106/106 68/107/107 72/31/31
f 73/108/108 237/109/109 66/110/110 69/111/111
f 73/108/108 69/111/111 74/112/112 75/113/113
f 76/106/106 75/114/114 74/115/115 68/107/107
f 78/116/116 73/108/108 75/113/113 77/117/117
f 77/118/118 75/114/114 76/106/106 80/119/119
f 78/116/116 77/117/117 79/120/120 238/121/121
f 80/119/119 81/122/122 79/123/123 77/118/118
f 83/124/124 81/122/122 80/119/119 82/125/124
f 80/119/119 76/106/106 20/30/30 82/125/124
f 82/125/124 84/126/124 85/127/124 83/124/124
f 20/30/30 22/35/32 84/126/124 82/125/124
f 88/128/124 85/127/124 84/126/124 86/129/124
f 24/37/34 86/129/124 84/126/124 22/35/32
f 87/130/125 86/129/124 24/37/34 169/131/126
f 86/129/124 87/130/125 89/132/127 88/128/124
f 88/128/124 89/132/127 91/133/128 90/134/124
f 90/134/124 92/135/124 85/127/124 88/128/124
f 94/136/129 93/137/124 90/134/124 91/133/128
f 90/134/124 93/137/124 96/138/124 92/135/124
f 93/137/124 94/136/129 112/139/130 95/140/124
f 96/138/124 93/137/124 95/140/124 98/141/124
f 268/142/124 92/135/124 96/138/124 97/143/124
f 98/141/124 99/144/124 97/143/124 96/138/124
f 100/145/124 101/146/124 99/144/124 98/141/124
f 98/141/124 95/140/124 102/147/124 100/145/124
f 101/146/124 100/145/124 103/148/131 104/149/131
f 102/147/124 106/150/131 103/148/131 100/145/124
f 105/151/132 260/152/132 104/149/131 103/148/131
f 103/148/131 106/150/131 107/153/132 105/151/132
f 110/154/133 107/153/132 106/150/131 108/155/134
f 106/150/131 102/147/124 111/156/135 108/155/134
f 108/155/134 111/156/135 113/157/136 109/158/137
f 108/155/134 109/158/137 127/159/138 110/154/133
f 95/140/124 112/139/130 111/156/135 102/147/124
f 111/156/135 112/139/130 114/160/139 113/157/136
f 115/161/140 113/162/141 114/163/142 116/164/143
f 109/165/144 113/162/141 115/161/140 117/166/145
f 116/164/143 119/167/146 118/168/147 115/161/140
f 117/166/145 115/161/140 118/168/147 121/169/148
f 118/168/147 119/167/146 150/170/149 120/171/150
f 120/171/150 122/172/151 121/169/148 118/168/147
f 121/169/148 122/172/151 125/173/152 123/174/153
f 123/174/153 126/175/154 117/166/145 121/169/148
f 124/176/155 128/177/156 126/178/157 123/179/158
f 124/176/155 123/179/158 125/180/159 148/181/160
f 117/166/145 126/175/154 127/182/161 109/165/144
f 128/177/156 110/183/162 127/184/163 126/178/157
f 128/177/156 129/185/164 107/186/165 110/183/162
f 124/176/155 131/187/166 129/185/164 128/177/156
f 105/188/165 107/186/165 129/185/164 130/189/164
f 129/185/164 131/187/166 133/190/167 130/189/164
f 131/187/166 124/176/155 148/181/160 132/191/168
f 133/190/167 131/187/166 132/191/168 135/192/168
f 261/193/164 130/189/164 133/190/167 134/194/169
f 135/192/168 136/195/168 134/194/169 133/190/167
f 137/196/170 138/197/171 136/198/172 135/199/173
f 135/199/173 132/200/172 139/201/171 137/196/170
f 138/197/171 137/196/170 140/202/174 141/203/174
f 139/201/171 143/204/174 140/202/174 137/196/170
f 141/203/174 140/202/174 142/205/175 223/206/175
f 144/207/175 142/205/175 140/202/174 143/204/174
f 146/208/176 144/207/175 143/204/174 145/209/177
f 147/210/178 145/209/177 143/204/174 139/201/171
f 145/209/177 147/210/178 122/211/179 120/212/180
f 145/209/177 120/212/180 150/213/181 146/208/176
f 132/200/172 148/214/182 147/210/178 139/201/171
f 147/210/178 148/214/182 125/215/183 122/211/179
f 149/216/184 222/217/185 144/207/175 146/208/176
f 149/216/184 146/208/176 150/213/181 151/218/186
f 152/219/187 151/220/188 150/170/149 119/167/146
f 152/219/187 156/221/189 153/222/190 151/220/188
f 151/218/186 153/223/191 154/224/192 149/216/184
f 154/224/192 153/223/191 155/225/193 189/226/194
f 156/221/189 157/227/195 155/228/196 153/222/190
f 160/229/197 157/227/195 156/221/189 158/230/198
f 152/219/187 161/231/199 158/230/198 156/221/189
f 162/232/200 159/233/201 158/230/198 161/231/199
f 158/230/198 159/233/201 164/234/202 160/229/197
f 161/231/199 152/219/187 119/167/146 116/164/143
f 161/231/199 116/164/143 114/163/142 162/232/200
f 94/136/129 91/133/128 159/235/203 162/236/204
f 94/136/129 162/236/204 114/160/139 112/139/130
f 163/237/205 187/238/206 157/227/195 160/229/197
f 163/237/205 160/229/197 164/234/202 165/239/207
f 87/130/125 165/240/208 164/241/209 89/132/127
f 91/133/128 89/132/127 164/241/209 159/235/203
f 165/239/207 166/242/210 167/243/211 163/237/205
f 87/130/125 169/131/126 166/244/212 165/240/208
f 167/243/211 166/242/210 168/245/213 183/246/214
f 169/131/126 170/247/215 168/248/216 166/244/212
f 172/40/36 170/247/215 169/131/126 24/37/34
f 171/98/217 183/99/218 168/100/219 170/101/220
f 173/98/221 171/99/217 170/100/220 172/101/222
f 173/98/221 172/99/222 25/100/223 174/101/224
f 175/98/225 173/99/221 174/100/224 176/101/226
f 175/98/225 178/99/227 171/100/217 173/101/221
f 175/98/225 176/99/226 211/100/228 177/101/229
f 178/98/227 175/99/225 177/100/229 179/101/230
f 178/98/227 179/99/230 182/100/231 180/101/232
f 171/98/217 178/99/227 180/100/232 183/101/218
f 183/246/214 180/249/233 181/250/234 167/243/211
f 181/250/234 180/249/233 182/251/235 184/252/236
f 185/253/237 184/254/238 182/255/239 179/256/240
f 187/238/206 181/250/234 184/252/236 186/257/241
f 186/258/242 184/254/238 185/253/237 188/259/243
f 187/238/206 186/257/241 155/228/196 157/227/195
f 188/259/243 189/226/194 155/225/193 186/258/242
f 188/259/243 190/260/244 191/261/245 189/226/194
f 190/260/244 188/259/243 185/253/237 193/262/246
f 215/263/245 191/261/245 190/260/244 192/264/244
f 190/260/244 193/262/246 195/265/247 192/264/244
f 179/256/240 177/266/248 193/262/246 185/253/237
f 193/262/246 177/266/248 211/267/249 194/268/250
f 194/268/250 196/269/251 195/265/247 193/262/246
f 214/270/244 192/264/244 195/265/247 60/94/84
f 60/94/84 195/265/247 196/269/251 58/95/83
f 58/93/83 196/271/251 197/272/252 56/90/80
f 198/273/253 197/272/252 196/271/251 194/274/250
f 56/90/80 197/272/252 199/275/254 200/91/81
f 197/272/252 198/273/253 201/276/255 199/275/254
f 200/91/81 199/275/254 202/74/64 44/73/63
f 203/277/256 202/74/64 199/275/254 201/276/255
f 38/64/57 40/66/58 202/74/64 203/277/256
f 204/278/257 205/61/56 38/64/57 203/277/256
f 207/279/258 204/278/257 203/277/256 201/276/255
f 206/280/259 212/281/260 205/282/261 204/283/262
f 208/284/263 206/280/259 204/283/262 207/285/264
f 207/285/264 209/286/265 210/287/266 208/284/263
f 201/276/255 198/273/253 209/288/267 207/279/258
f 210/287/266 209/286/265 211/289/268 176/290/269
f 198/273/253 194/274/250 211/291/249 209/288/267
f 176/290/269 174/45/40 28/44/39 210/287/266
f 210/287/266 28/44/39 30/49/44 32/50/45 34/53/48 213/56/51 212/281/260 206/280/259 208/284/263
f 212/281/260 213/56/51 35/57/52 205/282/261
f 46/75/65 52/88/78 200/91/81 44/73/63
f 192/264/244 214/270/244 216/292/245 215/263/245
f 215/263/245 216/292/245 218/293/270 217/294/270
f 217/294/270 219/295/270 191/261/245 215/263/245
f 221/296/185 220/297/185 217/294/270 218/293/270
f 222/217/185 219/295/270 217/294/270 220/297/185
f 222/217/185 220/297/185 142/205/175 144/207/175
f 223/206/175 142/205/175 220/297/185 221/296/185
f 222/217/185 149/216/184 154/224/192 219/295/270
f 226/298/271 223/206/175 221/296/185 224/299/272
f 221/296/185 218/293/270 227/300/273 224/299/272
f 224/299/272 227/300/273 229/301/274 225/302/275
f 224/299/272 225/302/275 246/303/276 226/298/271
f 227/300/273 218/293/270 216/292/245 228/304/277
f 227/300/273 228/304/277 231/305/278 229/301/274
f 225/306/279 229/307/280 230/308/281 244/309/282
f 230/308/281 229/307/280 231/310/283 232/311/284
f 234/312/285 232/311/284 231/310/283 233/313/286
f 235/314/287 233/315/288 231/305/278 228/304/277
f 233/313/286 236/316/289 237/109/109 234/312/285
f 235/314/287 63/102/90 236/105/95 233/315/288
f 237/109/109 236/316/289 64/317/290 66/110/110
f 234/312/285 237/109/109 73/108/108 78/116/116
f 228/304/277 216/292/245 214/270/244 235/314/287
f 214/270/244 60/94/84 63/102/90 235/314/287
f 238/121/121 232/311/284 234/312/285 78/116/116
f 239/318/291 230/308/281 232/311/284 238/121/121
f 239/318/291 238/121/121 79/120/120 240/319/292
f 241/320/293 239/318/291 240/319/292 242/321/294
f 244/309/282 230/308/281 239/318/291 241/320/293
f 241/320/293 242/321/294 265/322/295 243/323/296
f 243/323/296 245/324/297 244/309/282 241/320/293
f 244/309/282 245/324/297 246/325/298 225/306/279
f 247/326/299 248/327/300 246/325/298 245/324/297
f 249/328/301 247/326/299 245/324/297 243/323/296
f 247/326/299 250/329/302 252/330/303 248/327/300
f 253/331/304 250/329/302 247/326/299 249/328/301
f 250/329/302 253/331/304 255/332/305 251/333/306
f 250/329/302 251/333/306 271/334/307 252/330/303
f 253/331/304 249/328/301 263/335/308 254/336/309
f 253/331/304 254/336/309 257/337/310 255/332/305
f 251/338/311 255/339/312 256/340/313 269/341/314
f 256/340/313 255/339/312 257/342/315 258/343/316
f 259/344/317 258/345/318 257/346/319 254/347/320
f 258/343/316 260/348/165 261/193/164 256/340/313
f 259/344/317 104/149/131 260/152/132 258/345/318
f 130/189/164 261/193/164 260/348/165 105/188/165
f 269/341/314 256/340/313 261/193/164 134/194/169
f 254/347/320 263/349/321 262/350/322 259/344/317
f 104/149/131 259/344/317 262/350/322 101/146/124
f 262/350/322 263/349/321 265/351/323 264/352/324
f 101/146/124 262/350/322 264/352/324 99/144/124
f 266/353/325 264/352/324 265/351/323 242/354/326
f 99/144/124 264/352/324 266/353/325 97/143/124
f 242/354/326 240/355/327 267/356/328 266/353/325
f 266/353/325 267/356/328 268/142/124 97/143/124
f 267/356/328 240/355/327 79/123/123 81/122/122
f 268/142/124 267/356/328 81/122/122 83/124/124
f 83/124/124 85/127/124 92/135/124 268/142/124
f 249/328/301 243/323/296 265/322/295 263/335/308
f 136/195/168 270/357/329 269/341/314 134/194/169
f 269/341/314 270/357/329 271/358/330 251/338/311
f 272/359/331 252/360/332 271/361/333 270/362/334
f 138/197/171 272/359/331 270/362/334 136/198/172
f 248/363/335 252/360/332 272/359/331 273/364/336
f 272/359/331 138/197/171 141/203/174 273/364/336
f 273/364/336 141/203/174 223/206/175 226/298/271
f 273/364/336 226/298/271 246/303/276 248/363/335
f 189/226/194 191/261/245 219/295/270 154/224/192
f 187/238/206 163/237/205 167/243/211 181/250/234
